<svg xmlns="http://www.w3.org/2000/svg" viewBox="0 0 204.96 52.5"><defs><style>.cls-1{fill:#231815;}</style></defs><g id="레이어_2" data-name="레이어 2"><g id="Layer_1" data-name="Layer 1"><path class="cls-1" d="M15.56,32.65v.15a.19.19,0,0,1,0,.07.25.25,0,0,1-.12.11.42.42,0,0,1-.17.05A.4.4,0,0,1,15,33a.31.31,0,0,1-.16-.16l0-.07a.34.34,0,0,0,0-.09l.18,0,.22,0,.31,0A.08.08,0,0,0,15.56,32.65Zm-.12-.43h-.06l-.3,0-.39.07-.39,0h-.12l-.16,0h-.14l0,.09a.74.74,0,0,1,0,.12.58.58,0,0,1,0,.1s0,.09,0,.11l.2,0,.2,0,.18,0,.18,0v.05s0,0,0,.06,0,0,0,.08,0,.08,0,.11l.08.19a.47.47,0,0,0,.14.14.38.38,0,0,0,.18.09.81.81,0,0,0,.22,0,.47.47,0,0,0,.26-.14.41.41,0,0,0,.11-.28.33.33,0,0,0,0-.14.78.78,0,0,0,0-.14s0-.05,0-.13a1,1,0,0,1,0-.19l0-.24Z"/><path class="cls-1" d="M15.85,34.08a.52.52,0,0,1,0,.21.2.2,0,0,1-.14.14l-.12,0c-.25.05-.39,0-.44-.26,0,0,0,0,0-.06l.19,0,.19,0,.31-.07A.2.2,0,0,0,15.85,34.08ZM14.4,35a.51.51,0,0,0,0,.1,1.05,1.05,0,0,1,0,.13l.13-.12.23-.22.39-.38a.48.48,0,0,0,.22.26.43.43,0,0,0,.32,0,.41.41,0,0,0,.21-.1.43.43,0,0,0,.11-.2.33.33,0,0,0,0-.17s0-.14,0-.25S16,34,16,34s0-.12,0-.18l0-.18-.35.09-.21,0-.46.1-.21,0-.29.06-.17,0h-.05l0,.09a.3.3,0,0,1,0,.11.55.55,0,0,1,0,.09.74.74,0,0,1,0,.12l.12,0a.56.56,0,0,1,.15,0l.06,0,.46-.1h0v0l-.11.1-.12.11-.46.4C14.36,34.9,14.38,35,14.4,35Z"/><path class="cls-1" d="M15,36a.94.94,0,0,1,.4-.29l.29-.08a.89.89,0,0,1,.28,0,.48.48,0,0,1,.25.09.42.42,0,0,1,.12.1.91.91,0,0,1,.07.14.49.49,0,0,1-.07.48,1,1,0,0,1-.42.29l-.27.08a1.22,1.22,0,0,1-.27,0,.63.63,0,0,1-.27-.1.5.5,0,0,1-.17-.23A.49.49,0,0,1,15,36Zm1.22,1a1.09,1.09,0,0,0,.17-.13.75.75,0,0,0,.14-.17.86.86,0,0,0,.07-.21.8.8,0,0,0,0-.31,1.16,1.16,0,0,0-.07-.31,1.66,1.66,0,0,0-.19-.35,1,1,0,0,0-.29-.24,1,1,0,0,0-.37-.11,1.07,1.07,0,0,0-.39.07.92.92,0,0,0-.32.18.93.93,0,0,0-.22.29.72.72,0,0,0-.06.36,1.28,1.28,0,0,0,.07.39,1.37,1.37,0,0,0,.19.34,1,1,0,0,0,.29.24.84.84,0,0,0,.38.11.82.82,0,0,0,.38-.06Z"/><path class="cls-1" d="M17.29,37.58l.07.1.05.08.08.09s.06.06.06.07l-.16.11-.13.1-.09.07-.19.15a1.26,1.26,0,0,1,.14.18l.1.13.15.18.11.13.28-.23.1-.08.17-.15a.46.46,0,0,0,.07.1l0,.08.08.08.06.08-.1.08-.19.12-.48.37-.23.2a4,4,0,0,0-.39.33l-.07-.1,0-.07-.09-.1-.07-.08.3-.2.3-.23.1-.07-.25-.32-.25-.31-.25.2-.22.19-.19.16-.07-.09L16,38.85,16,38.76l-.07-.08.29-.21.48-.35.24-.2Z"/><path class="cls-1" d="M18,40.47a.86.86,0,0,1,.18-.45,1.5,1.5,0,0,1,.2-.23.82.82,0,0,1,.22-.16.6.6,0,0,1,.27-.06l.15,0a.7.7,0,0,1,.14.08.48.48,0,0,1,.19.45.92.92,0,0,1-.18.46,2,2,0,0,1-.2.21.69.69,0,0,1-.21.15.54.54,0,0,1-.29.06.45.45,0,0,1-.27-.1A.48.48,0,0,1,18,40.47Zm1.59.23a1,1,0,0,0,.08-.21,1.49,1.49,0,0,0,0-.21,1.12,1.12,0,0,0-.05-.22.87.87,0,0,0-.14-.27,1.75,1.75,0,0,0-.24-.23,1.24,1.24,0,0,0-.34-.18,1,1,0,0,0-.38-.05.83.83,0,0,0-.37.11.89.89,0,0,0-.29.26,1,1,0,0,0-.17.33.73.73,0,0,0,0,.36.79.79,0,0,0,.13.35,1.48,1.48,0,0,0,.28.28,1.29,1.29,0,0,0,.35.18.9.9,0,0,0,.37,0,1,1,0,0,0,.37-.11,1.2,1.2,0,0,0,.29-.26A.87.87,0,0,0,19.57,40.7Z"/><path class="cls-1" d="M19.87,41l.4-.68.05,0,0,0,.06,0h0c0,.2,0,.35,0,.45a4.08,4.08,0,0,1,0,.46c0,.15,0,.3,0,.45l.25-.21.78-.69,0,0,0,0h0l.1,0c-.09.3-.16.55-.21.74s-.1.34-.12.43l-.12.44a.11.11,0,0,1,0,0,.35.35,0,0,1,0,.06l-.11,0-.09,0-.11,0-.09,0a4.8,4.8,0,0,0,.19-.54c.06-.21.12-.41.17-.61l-.33.3-.33.29c-.08.06-.18.16-.33.3l-.05,0h0l0-.46,0-.42c0-.14,0-.28,0-.42l-.23.4-.14.27-.11.22-.08.15-.07-.05h0l-.12,0s0,0,0,0l0,0,.1-.16.12-.19.14-.23Z"/><path class="cls-1" d="M22.63,41.12a.56.56,0,0,1,0,.12,2.12,2.12,0,0,0-.06.21s0,.14-.08.24-.05.19-.07.25,0,.14-.06.26a1.71,1.71,0,0,1-.06.26,2,2,0,0,1-.05.24.58.58,0,0,1,0,.14l-.11,0-.08,0-.23-.05c0-.09.06-.21.1-.34.1-.3.15-.49.18-.57l0-.14.08-.33,0-.13a2,2,0,0,0,0-.21l.11,0,.09,0,.12,0Z"/><path class="cls-1" d="M23,43h0l-.1,0h-.12c0-.16.08-.36.12-.58s.08-.43.11-.63l.05-.42,0-.12.11,0h.12l.31.45.32.46.3.46.09-.56,0-.29a1.39,1.39,0,0,0,0-.15c0-.07,0-.13,0-.16v0l.06,0h.17l0,.14s0,.08,0,.12,0,.17-.05.2,0,.16,0,.26,0,.16-.05.22l0,.26-.09.55h0l-.08,0h-.11l-.22-.35-.23-.36-.25-.35-.23-.34-.06.34,0,.24s0,.19,0,.41A1.87,1.87,0,0,1,23,43Z"/><path class="cls-1" d="M26.54,41.54a1.23,1.23,0,0,0,0,.19,1.09,1.09,0,0,0,0,.19l0,.25,0,.29a2,2,0,0,1,0,.42.6.6,0,0,1-.25.32.67.67,0,0,1-.23.1.82.82,0,0,1-.27,0,1,1,0,0,1-.45-.1.54.54,0,0,1-.28-.36s0,0,0-.06a.2.2,0,0,1,0-.07V41.49h.42v.13c0,.06,0,.16,0,.3s0,.24,0,.3v.32a.62.62,0,0,0,0,.19.53.53,0,0,0,0,.16.31.31,0,0,0,.09.13.37.37,0,0,0,.29.12.6.6,0,0,0,.29-.06.58.58,0,0,0,.18-.24.81.81,0,0,0,.05-.21c0-.09,0-.2,0-.33a3.89,3.89,0,0,0,0-.39c0-.17,0-.3,0-.39l.07,0h.19Z"/><path class="cls-1" d="M27,42.32l0-.79h.17l0,0c.1.18.17.31.23.4l.24.38c.08.14.16.26.24.39l.13-.31c.13-.33.25-.65.36-1h.11l.11,0c.06.31.12.56.16.76l.09.44L29,43a.2.2,0,0,1,0,0,.39.39,0,0,1,0,.06h-.33l-.1,0a3.33,3.33,0,0,0-.09-.57c0-.21-.08-.42-.13-.61l-.15.41c-.06.14-.11.28-.16.41s-.08.24-.15.42h-.1l-.23-.39-.22-.36-.22-.36v1.18h-.12l-.12,0v0a.13.13,0,0,1,0-.05s0-.11,0-.2v-.21c0-.08,0-.17,0-.27A1.48,1.48,0,0,1,27,42.32Z"/><path class="cls-1" d="M30.22,41.36c0-.09,0-.15-.06-.19l.07,0,.05,0a.3.3,0,0,1,.21,0s.05,0,.08.08a.41.41,0,0,1,.06.11.26.26,0,0,1,0,.15.33.33,0,0,1,0,.14l-.09.09-.14,0h0l-.09-.25S30.24,41.45,30.22,41.36Zm.73.12a.34.34,0,0,0,0-.31.34.34,0,0,0-.25-.25.65.65,0,0,0-.36,0l-.36.12-.28.09q0,.1.12.33l.11.33a2.06,2.06,0,0,1,.09.29c.06.19.1.32.12.4s0,.11.05.18,0,.12,0,.16l.21-.07.37-.11.09,0,.07,0a.56.56,0,0,0,.15-.1.45.45,0,0,0,.11-.13.55.55,0,0,0,0-.38.36.36,0,0,0-.23-.25.47.47,0,0,0-.17,0,.32.32,0,0,0-.17,0v0A.57.57,0,0,0,31,41.48Zm-.56.43,0,0h0a.32.32,0,0,1,.27,0,.37.37,0,0,1,.17.25.33.33,0,0,1,0,.24.19.19,0,0,1-.07.11.24.24,0,0,1-.11.06l-.13,0-.1-.31Z"/><path class="cls-1" d="M31.17,40.7l0,0,.19-.09.19-.08.3-.15.22-.12a1,1,0,0,1,0,.1l0,0s0,0,0,0l0,0-.27.11-.27.12.11.25.13.26.52-.28a.19.19,0,0,0,0,.07l0,0,0,0s0,0,0,0l-.21.09-.21.09-.12.06.15.29.14.3c.17-.09.34-.18.53-.3a.3.3,0,0,0,0,.11v0l0,0,0,0-.22.1L32.4,42l-.27.15-.2.1-.06-.13-.2-.44-.17-.36-.14-.27c0-.06-.05-.11-.06-.14Z"/><path class="cls-1" d="M33.51,41.41h0l-.08,0-.09.08L33,41.06c-.12-.18-.25-.36-.38-.52l-.25-.33-.07-.1.1-.06.08-.08.55.1.54.1.55.1-.34-.46-.18-.23-.1-.11-.1-.13,0,0,.06,0,0,0,0,0,0,0,.08.12.07.1.11.17c0,.06.1.14.15.21l.13.19.16.21.33.44,0,0-.06,0-.08.08L34,40.65l-.42-.09-.42-.07-.41-.07.21.28.14.19s.12.15.26.33Z"/><path class="cls-1" d="M33.76,39l0,0,.14-.14.15-.15.22-.26.16-.19a.32.32,0,0,0,.08.09l0,0,0,0h0l-.21.21-.21.21.19.19.22.19.37-.45.05.06,0,0a.05.05,0,0,0,0,0l0,0L35,39c-.08.07-.13.13-.17.17l-.08.09.24.22.24.22a4.84,4.84,0,0,0,.38-.47l.08.09,0,0,0,0h0l-.17.17-.16.17-.2.24-.15.17L35,40l-.36-.34-.29-.27-.22-.2-.12-.1Z"/><path class="cls-1" d="M34.57,38l0,0,.12-.17a.91.91,0,0,0,.12-.17L35,37.4l.13-.21a.71.71,0,0,0,.09.07l0,0,0,0h0l-.18.24-.18.24.22.15.24.17.31-.51.06,0s0,0,0,0a.05.05,0,0,0,0,0l0,0-.14.18-.14.19-.07.11.24.16.47.29-.07.1-.06.07a.54.54,0,0,0-.06.11L36,39l-.12-.09-.39-.28-.33-.23-.25-.17-.13-.08Z"/><path class="cls-1" d="M35.41,36.6l.11.06.18.11.23.13a1.28,1.28,0,0,0,.22.12l.24.12.24.12.22.1.13.06a.37.37,0,0,1-.06.1l-.05.08-.09.21-.31-.18-.52-.3-.13-.06-.3-.15-.12-.07L35.21,37a.64.64,0,0,1,.06-.1l0-.08,0-.11S35.4,36.6,35.41,36.6Z"/><path class="cls-1" d="M37.44,35.5l0,0,.18.13a1.13,1.13,0,0,1,0,.26,2,2,0,0,1-.07.26,1.14,1.14,0,0,1-.09.19l-.07.11a.53.53,0,0,1-.1.12l-.12.1a.35.35,0,0,1-.12.07l-.12,0a.84.84,0,0,1-.27,0,1.31,1.31,0,0,1-.27-.06,1.44,1.44,0,0,1-.37-.21.89.89,0,0,1-.21-.34.76.76,0,0,1-.05-.37,1.37,1.37,0,0,1,.09-.4,1.08,1.08,0,0,1,.12-.24,1.3,1.3,0,0,1,.18-.21.52.52,0,0,0,.11.07l.12.08,0,0a.65.65,0,0,0-.22.11.6.6,0,0,0-.14.21.54.54,0,0,0,.06.52.9.9,0,0,0,.45.32.89.89,0,0,0,.28.07.82.82,0,0,0,.27,0,.59.59,0,0,0,.22-.14.48.48,0,0,0,.15-.22.69.69,0,0,0,0-.25A.66.66,0,0,0,37.44,35.5Z"/><path class="cls-1" d="M36.25,34.27l.12,0,.21.07.24.08.25.07.26.06.26.06.23,0,.15,0,0,.11a.42.42,0,0,0,0,.09,1.24,1.24,0,0,0,0,.22l-.35-.1c-.3-.1-.49-.15-.57-.17l-.13,0-.33-.08-.14,0-.2,0s0-.07,0-.12a.16.16,0,0,1,0-.08s0-.07,0-.12Z"/><path class="cls-1" d="M37.87,33.69a.79.79,0,0,1-.49.05c-.1,0-.19,0-.29-.06a1.19,1.19,0,0,1-.25-.13.48.48,0,0,1-.17-.2.37.37,0,0,1-.05-.15.42.42,0,0,1,0-.16.49.49,0,0,1,.3-.38.9.9,0,0,1,.5,0l.28.07a.86.86,0,0,1,.23.13.56.56,0,0,1,.19.22.53.53,0,0,1,0,.28A.48.48,0,0,1,37.87,33.69Zm-.55-1.51-.21,0-.2.08a1.77,1.77,0,0,0-.17.14,1.06,1.06,0,0,0-.17.26.85.85,0,0,0-.09.31,1.35,1.35,0,0,0,0,.4,1,1,0,0,0,.14.35.87.87,0,0,0,.27.27.93.93,0,0,0,.36.14,1.21,1.21,0,0,0,.38,0,1,1,0,0,0,.32-.15.88.88,0,0,0,.25-.29,1.46,1.46,0,0,0,.12-.37,1.27,1.27,0,0,0,0-.39,1,1,0,0,0-.14-.35.81.81,0,0,0-.27-.28.92.92,0,0,0-.36-.13A.86.86,0,0,0,37.32,32.18Z"/><path class="cls-1" d="M22.17,36.11v-.49h0l-.33.16-.05-.07-.07-.08v0a3.46,3.46,0,0,0,.43-.17l.43-.2.06,0c0,.12,0,.27,0,.43,0,.4,0,.64,0,.74v.52c0,.14,0,.26,0,.33h-.47l0-.23c0-.14,0-.32,0-.54S22.17,36.15,22.17,36.11Z"/><path class="cls-1" d="M25.06,36.17c0,.11-.11.16-.21.16a.21.21,0,0,1-.19-.12.89.89,0,0,1-.05-.23v-.13a.65.65,0,0,1,0-.29.22.22,0,0,1,.2-.17c.11,0,.18.07.22.19a1.25,1.25,0,0,1,0,.32A.72.72,0,0,1,25.06,36.17Zm-.71,1,0,.07,0,0h0l.08,0h.1a.88.88,0,0,0,.71-.37,1.13,1.13,0,0,0,.17-.39,1.76,1.76,0,0,0,.06-.46,1.65,1.65,0,0,0,0-.31.68.68,0,0,0-.13-.27.58.58,0,0,0-.25-.19.83.83,0,0,0-.32-.06.71.71,0,0,0-.26,0,.8.8,0,0,0-.21.13.74.74,0,0,0-.16.23,1.12,1.12,0,0,0,0,.29.53.53,0,0,0,.17.4.62.62,0,0,0,.42.15.46.46,0,0,0,.36-.15h0v0a1.07,1.07,0,0,1-.12.51.43.43,0,0,1-.4.28.27.27,0,0,1-.14,0l-.12-.08,0,0A.44.44,0,0,1,24.35,37.17Z"/><path class="cls-1" d="M27.17,35.93l.2-.31h0v.85h-.55l0,0C27,36.23,27.08,36.05,27.17,35.93Zm-.55.64v.15a.32.32,0,0,1,0,.07h.79c0,.09,0,.18,0,.27s0,.15,0,.21h.45v-.48l.26,0a.66.66,0,0,1,0-.11.15.15,0,0,1,0-.07.28.28,0,0,1,0-.09.25.25,0,0,1,0-.08l-.26,0v-.86s0-.09,0-.23a.41.41,0,0,0,0-.12l-.2,0h-.19l-.17.26-.18.26-.22.33-.26.38Z"/><path class="cls-1" d="M29.61,36.41a.21.21,0,0,1,.42,0,1.15,1.15,0,0,1,0,.3A.85.85,0,0,1,30,37a.22.22,0,0,1-.2.17c-.11,0-.18-.07-.22-.19a.92.92,0,0,1,0-.32A.68.68,0,0,1,29.61,36.41Zm.6-1.13H30l-.13,0-.18.05a.51.51,0,0,0-.16.09,1,1,0,0,0-.33.48,1.81,1.81,0,0,0-.09.58,1.53,1.53,0,0,0,0,.3,1.11,1.11,0,0,0,.13.27.59.59,0,0,0,.22.19l.15,0,.17,0a.72.72,0,0,0,.51-.19.6.6,0,0,0,.2-.47.54.54,0,0,0-.17-.42.63.63,0,0,0-.44-.16.43.43,0,0,0-.34.15h0a1.33,1.33,0,0,1,0-.28,1.54,1.54,0,0,1,.05-.17.51.51,0,0,1,.09-.18.64.64,0,0,1,.15-.14.33.33,0,0,1,.19-.06h.09l.09,0,0,0Z"/><path class="cls-1" d="M3.64,23.54a1.23,1.23,0,1,0-1.23-1.22A1.22,1.22,0,0,0,3.64,23.54Z"/><path class="cls-1" d="M48.73,23.14a1.22,1.22,0,1,0-1.22-1.22A1.22,1.22,0,0,0,48.73,23.14Z"/><polygon class="cls-1" points="4.5 13.18 5.74 11.51 5.38 11.27 5.89 10.58 6.25 10.82 7.51 9.13 8.05 9.48 5.02 13.54 4.5 13.18"/><polygon class="cls-1" points="8.7 12.43 7.86 11.86 7.26 12.66 8.1 13.22 8.7 12.43"/><polygon class="cls-1" points="9.96 10.78 9.44 10.43 6.37 14.56 6.89 14.91 9.96 10.78"/><path class="cls-1" d="M7.47,12.83c-.65.67-1.41,1-1.83.69s-.35-1.37.35-2.31,1.67-1.42,2.17-1.08.38,1-.05,1.83m-.81.13c.36-.47.46-1,.24-1.13s-.69.12-1,.59-.47,1-.24,1.13S7,12.57,7.3,12.09Z"/><path class="cls-1" d="M7.78,15.09c-.6-.4-.49-1.54.26-2.55s1.84-1.49,2.44-1.08S11,13,10.22,14,8.38,15.49,7.78,15.09Zm1.9-1.45c.46-.63.57-1.31.24-1.53s-1,.1-1.44.73-.57,1.31-.24,1.53S9.21,14.26,9.68,13.64Z"/><polygon class="cls-1" points="25.95 1.17 23.9 1.17 23.9 5.94 27.18 5.94 27.18 3.53 27.47 3.53 27.47 5.94 28.35 5.94 28.35 1.17 27.48 1.17 27.48 2.85 27.19 2.85 27.19 1.19 26.32 1.19 26.32 5.32 24.66 5.32 24.66 1.71 25.95 1.71 25.95 1.17"/><polygon class="cls-1" points="45.16 9.36 47.69 12.79 44.11 15.15 44.38 15.52 43.84 15.88 40.94 11.94 41.49 11.58 42.01 12.28 44.26 10.8 44.78 11.51 42.52 13 42.73 13.29 45 11.79 45.51 12.48 43.23 13.98 43.57 14.46 46.59 12.47 44.6 9.72 45.16 9.36"/><polygon class="cls-1" points="36.37 3.01 38.55 4.39 38.26 4.81 36.08 3.44 36.37 3.01"/><polygon class="cls-1" points="35.53 3.39 38.49 5.26 38.13 5.77 35.18 3.92 35.53 3.39"/><polygon class="cls-1" points="39.16 4.79 39.98 5.3 39.11 6.55 39.56 6.83 39.16 7.42 38.71 7.13 38.3 7.72 37.5 7.21 39.16 4.79"/><polygon class="cls-1" points="34.4 5.52 38.19 7.9 37.23 9.27 36.4 8.75 36.95 7.96 33.99 6.1 34.4 5.52"/><path class="cls-1" d="M35.2,4.6A1.32,1.32,0,0,1,37,4.41,1.17,1.17,0,0,1,37.47,6a1.31,1.31,0,0,1-1.77.19A1.17,1.17,0,0,1,35.2,4.6ZM36,5.86a.64.64,0,0,0,.82-.26.58.58,0,0,0-.07-.82.63.63,0,0,0-.82.26A.57.57,0,0,0,36,5.86Z"/><path class="cls-1" d="M1.72,31.35l4.12-1.22.16.56-1.7.5.64,2.15,1.7-.51.17.57L2.69,34.62l-.17-.57,1.93-.57-.64-2.14-1.93.57Z"/><path class="cls-1" d="M4.33,36.22a2,2,0,0,1,.91-.87,1.93,1.93,0,0,1,1.39-.24,1.47,1.47,0,0,1,.91.77,1.37,1.37,0,0,1,.07,1.18,1.79,1.79,0,0,1-.9.9,2.32,2.32,0,0,1-1.29.27,1.23,1.23,0,0,1-1-.74A1.36,1.36,0,0,1,4.33,36.22Zm2.2-1.71A2.49,2.49,0,0,0,5,34.8,2.48,2.48,0,0,0,3.8,36a2,2,0,0,0,.13,1.69,1.93,1.93,0,0,0,1.41,1.12A2.53,2.53,0,0,0,7,38.49a2.35,2.35,0,0,0,1.11-1A2,2,0,0,0,8,35.61,1.88,1.88,0,0,0,6.53,34.51Z"/><path class="cls-1" d="M6.05,41l2.74-2.14L7.4,42.72l.4.51,3.39-2.64-.34-.44L8.11,42.29l1.41-3.85-.43-.54L5.7,40.54Z"/><path class="cls-1" d="M11.62,41.72a2.43,2.43,0,0,0-1.56.92,2.34,2.34,0,0,0-.65,1.69,1.87,1.87,0,0,0,.68,1.23A2.06,2.06,0,0,0,11,46a2.61,2.61,0,0,0,.69,0l-.25.51.28.24L13.19,45,11.75,43.8l-.31.37,1,.88a1.28,1.28,0,0,1-2,.21A1.25,1.25,0,0,1,10,44.18,2.16,2.16,0,0,1,10.53,43a1.94,1.94,0,0,1,1.18-.75,1.29,1.29,0,0,1,1,.31,1.46,1.46,0,0,1,.5.7,1.08,1.08,0,0,1-.11.81l.44.37a1.52,1.52,0,0,0,.16-1.4,2.13,2.13,0,0,0-.64-.86A1.87,1.87,0,0,0,11.62,41.72Z"/><path class="cls-1" d="M13.42,47.76l2.34-3.61-.49-.32-2.35,3.61Z"/><path class="cls-1" d="M14.31,48.25l2-3.78.5.27-1,1.84,2.84-.83.71.38L17,46.8l.38,3.13-.66-.36L16.44,47l-.92.24-.72,1.32Z"/><path class="cls-1" d="M21,48.81a2.83,2.83,0,0,0,0,1.24,1.49,1.49,0,0,0,1.33,1,1.5,1.5,0,0,0,1.59-.51,2.82,2.82,0,0,0,.42-1.17L24.75,47l-.58-.1-.45,2.62a1.88,1.88,0,0,1-.27.71,1,1,0,0,1-1.08.32.92.92,0,0,1-.79-.61,1.61,1.61,0,0,1,0-.8L22,46.53l-.58-.1Z"/><path class="cls-1" d="M26,51.37,26,47.89l2.28,3.43h.66L28.8,47h-.55l.08,3.48-2.25-3.43h-.69l.09,4.3Z"/><path class="cls-1" d="M30.94,51l-.74-4.23-.58.1.74,4.24Z"/><path class="cls-1" d="M30.67,46.71l.62-.2,2.29,3.11,0-3.86.62-.2-.17,4.58-.59.18Z"/><path class="cls-1" d="M39.4,47.65l-.25-.45-2.29,1.24-.7-1.28L38.25,46,38,45.59l-2.08,1.13-.63-1.15,2.26-1.22-.25-.46-2.76,1.49,2.05,3.78Z"/><path class="cls-1" d="M38.6,43.56l1.11-.89a1.07,1.07,0,0,1,.43-.23.63.63,0,0,1,.65.27.7.7,0,0,1,.19.62,1.14,1.14,0,0,1-.41.53l-1,.84Zm2.39,3-1.16-1.44,1-.83a1.37,1.37,0,0,1,.46-.27.63.63,0,0,1,.6.25l.48.53c.11.13.19.21.23.25l.13.08.55-.45-.06-.07a.34.34,0,0,1-.31-.09,2.05,2.05,0,0,1-.26-.26l-.38-.43a1,1,0,0,0-.45-.34.93.93,0,0,0-.46,0,1.12,1.12,0,0,0,.1-.59,1.16,1.16,0,0,0-.27-.59,1,1,0,0,0-1.11-.41,1.87,1.87,0,0,0-.72.4l-1.56,1.25,2.7,3.34Z"/><path class="cls-1" d="M44.12,43.39a1.78,1.78,0,0,0,1.14-.68,2.3,2.3,0,0,0,.56-1.11,1.1,1.1,0,0,0-.43-1.06,1,1,0,0,0-.93-.27,1.7,1.7,0,0,0-.64.33l-.5.36a4.13,4.13,0,0,1-.69.44.52.52,0,0,1-.53-.11.68.68,0,0,1-.23-.5,1,1,0,0,1,.33-.7,1.1,1.1,0,0,1,.84-.46,1.12,1.12,0,0,1,.53.21l.36-.41a1.19,1.19,0,0,0-1.1-.34,2,2,0,0,0-1,.66,1.62,1.62,0,0,0-.47,1.1,1.26,1.26,0,0,0,.45.93.91.91,0,0,0,.88.21,2.7,2.7,0,0,0,.75-.42l.48-.35a2.3,2.3,0,0,1,.65-.36.56.56,0,0,1,.52.17.67.67,0,0,1,.15.81,1.93,1.93,0,0,1-.32.52,1.16,1.16,0,0,1-1,.49,1.23,1.23,0,0,1-.56-.26L43,43A1.38,1.38,0,0,0,44.12,43.39Z"/><path class="cls-1" d="M47.31,39.82,43.75,37.4l-.33.49L47,40.31Z"/><path class="cls-1" d="M44,37.07,45.66,34l.46.24-.68,1.28,3.36,1.76-.27.53L45.17,36l-.67,1.28Z"/><path class="cls-1" d="M50.25,33.78l.18-.56-1.65-.52-2-2.33-.21.65,1.59,1.8-2.34.55-.21.65,2.94-.77Z"/><polygon class="cls-1" points="20.24 19.23 20.24 15.18 29.19 15.18 29.19 16.51 29.44 16.51 29.44 14.93 19.99 14.93 19.99 19.48 23.3 19.48 23.3 19.23 20.24 19.23"/><path class="cls-1" d="M28.88,23.3l-.12.1a2.7,2.7,0,0,1-.05.76.4.4,0,0,1-.35.08c-.06,0-.05-.1-.05-.17h-.42l-.05.48c.26,0,.49.11.66-.15.14.12.38.21.39.41s-.1.08-.16.11a4.54,4.54,0,0,1-.11.66.81.81,0,0,0,.31,0A17.22,17.22,0,0,0,29.31,23a3,3,0,0,1,.74.13c0,.06-.05.09-.1.1l-.05,0a15.75,15.75,0,0,1-.77,2.35v0l.87-.06a2.59,2.59,0,0,0-.28-1c.12,0,.21.1.31.19a1.35,1.35,0,0,1,.5,1.25.31.31,0,0,1-.2.24.29.29,0,0,1-.24,0C30,26,30,25.87,30,25.72c-.37.09-.73.26-1.1.38,0,0,0,.15-.12.1s-.11-.32-.19-.48c-.08.21-.22.48-.46.5-.08,0-.2,0-.24-.06s0-.29-.17-.3-.16,0-.21-.11c.21,0,.54.14.66-.16a4,4,0,0,0,.12-.86,1.93,1.93,0,0,0-.48,0c0,.1,0,.18-.14.22a.7.7,0,0,1-.29,0c-.08-.1,0-.23,0-.35a6.12,6.12,0,0,0,.1-.86l.4.19h.41c0-.23,0-.43,0-.64h-1s0-.15,0-.17h1.06l.2-.2C28.64,23,28.93,23.08,28.88,23.3Z"/><path class="cls-1" d="M30,26.7c-.08.07-.21,0-.3.05a1.14,1.14,0,0,0,.57.37l.39.1c0,.11-.16.12-.17.24s0,.16-.05.24a1.56,1.56,0,0,1-.57-.4l-.06.05H28.26s-.06-.12,0-.15h1.14c.1-.06.18-.32.33-.09,0,0,0,0,0,0a1.94,1.94,0,0,1-.21-.34h-.8l-.1-.14h.81l.24-.25C29.8,26.47,30,26.54,30,26.7Z"/><path class="cls-1" d="M28.62,26.79c0,.1-.12.08-.19.13a2.9,2.9,0,0,1-1.08.8l0,0a3.7,3.7,0,0,0,.77-1.18A3.67,3.67,0,0,1,28.62,26.79Z"/><path class="cls-1" d="M30.05,27.85c0,.09-.1.08-.16.08a.32.32,0,0,0-.14,0,1.46,1.46,0,0,0,1,.48c0,.1-.12.13-.15.2s0,.19-.08.28-.23-.28-.33,0v.78c.08-.06.13-.18.22-.27a1.44,1.44,0,0,1,.38.4l-.12.08H27.41c-.05,0-.05-.13-.08-.16h.55V28.62a1.79,1.79,0,0,1-.56.3v0a3.07,3.07,0,0,0,.76-1.16,2.36,2.36,0,0,1,.52.28c0,.08-.12.09-.18.11a3.32,3.32,0,0,1-.37.38l.25.09h1.34l.19-.15a2,2,0,0,1-.3-.48l0,0h-.78a.39.39,0,0,1-.05-.14h.81l.21-.21A1.11,1.11,0,0,1,30.05,27.85Zm-1.58.86h-.16v1h.16Zm.63,0H29c.05,0,0,.1,0,.14v.84h.17Zm.59,0h-.11l0,.07-.07.07v.84h.16Z"/><path class="cls-1" d="M23.42,22.89c0,.08-.08.1-.11.14a2.82,2.82,0,0,0,1.57,2.62c0,.13-.06,0-.25.11s-.13.29-.21.3c-.26-.08-.44-.36-.6-.56a4,4,0,0,1-.62-2A2.65,2.65,0,0,1,21.8,26a1,1,0,0,1-.45.08v0c1.24-.61,1.38-2,1.33-3.3A3.38,3.38,0,0,1,23.42,22.89Z"/><path class="cls-1" d="M22.09,26.8c.19,0,.59.06.67-.22a1,1,0,0,1,.41.34c0,.1-.08.11-.13.15v.87c-.05.12-.21.11-.32.11a.14.14,0,0,1-.12-.06s0-.12,0-.12h-.49l0,0v1.95c0,.12-.2.1-.31.11s-.12,0-.13-.09v-3.3Zm.49.42v-.28h-.5v.28Zm0,.47v-.28h-.5v.28Z"/><path class="cls-1" d="M24.31,26.8l.13-.2c.14.11.34.17.42.36s-.1.1-.15.15v2.64c-.05.16-.23.21-.38.22s-.09,0-.09-.08v-.18a1.63,1.63,0,0,0-.38-.17.65.65,0,0,1-.38.09c-.07-.07,0-.18,0-.27l-.52,0c0,.13.05.37-.17.39s-.18.05-.25,0l0-.06V28a3.43,3.43,0,0,1,.44.19h.54l.1-.15A.36.36,0,0,1,23.3,28V26.6l.46.2Zm0,.45V27h-.51v.28Zm0,.47v-.28h-.51v.28Zm-.86,1v-.28h-.5v.28Zm0,.47v-.28h-.5v.28Zm.24-1.11a.58.58,0,0,1,.2.12c.24.21,0,.29,0,.29v1l.26,0a.14.14,0,0,0,.16-.07V27.9h-.54C23.78,28,23.65,28.05,23.65,28.05Z"/><polygon class="cls-1" points="32.48 16.51 32.48 20.84 23.3 20.84 23.3 19.48 29.44 19.48 29.44 16.51 32.48 16.51"/><path class="cls-1" d="M23.3,16.51h5.89v2.72H23.3Zm4.91.91H26.32v-.55h-.25v.55H24.3v.24H26c-.31.73-1.71.82-1.71.82l0,.24c1.55-.11,1.87-.87,1.87-.87.43.81,1.94.89,1.94.89l0-.25c-1.27-.13-1.66-.57-1.78-.83h1.83Z"/><path class="cls-1" d="M12.42,30a3,3,0,0,1,.64,1.23l.25-.06a3.3,3.3,0,0,0-.71-1.36Z"/><path class="cls-1" d="M13.49,28.76a4.37,4.37,0,0,0,1,1.6l.18-.18a4.53,4.53,0,0,1-.92-1.5Z"/><path class="cls-1" d="M12.13,21.52a2.18,2.18,0,0,0-1.54.72,1.91,1.91,0,0,0,0,2.68,1.64,1.64,0,0,0,2.15,0,1.17,1.17,0,0,0,.11-1.69.89.89,0,0,0-.72-.23.65.65,0,0,0-.51.35l.22.12a.42.42,0,0,1,.32-.21.64.64,0,0,1,.5.15.87.87,0,0,1,.24.65.9.9,0,0,1-.33.66,1.42,1.42,0,0,1-1.8,0,1.68,1.68,0,0,1,0-2.33,1.88,1.88,0,0,1,1.36-.63,3.35,3.35,0,0,1,2.38,1.07c1.11,1.07,1.11,2.82,1.11,3.87s-.61,4-2.47,4.32A1.47,1.47,0,0,1,12,30.81a1.49,1.49,0,0,1-.58-1,1.35,1.35,0,0,1,.48-1.32A1.15,1.15,0,0,1,13,28.32a1,1,0,0,1,.6.78.66.66,0,0,1-.32.64.63.63,0,0,1-.52.09.48.48,0,0,1-.3-.26l-.23.11a.76.76,0,0,0,.46.4A.85.85,0,0,0,13.4,30a.9.9,0,0,0,.45-.87,1.24,1.24,0,0,0-.77-1,1.38,1.38,0,0,0-1.34.25,1.59,1.59,0,0,0-.58,1.56A1.75,1.75,0,0,0,11.85,31a1.79,1.79,0,0,0,1.36.28c2-.35,2.68-3.42,2.68-4.5s0-3-1.19-4.14A3.61,3.61,0,0,0,12.13,21.52Z"/><path class="cls-1" d="M0,26.25A26.25,26.25,0,1,0,26.25,0,26.28,26.28,0,0,0,0,26.25Zm.26,0a26,26,0,1,1,26,26A26,26,0,0,1,.26,26.25Z"/><path class="cls-1" d="M6.48,26.25A19.77,19.77,0,1,0,26.25,6.48,19.79,19.79,0,0,0,6.48,26.25Zm.26,0A19.51,19.51,0,1,1,26.25,45.76,19.53,19.53,0,0,1,6.74,26.25Z"/><path class="cls-1" d="M15.18,13.17a3,3,0,0,0-1.55,2.21l-.13.7a12,12,0,0,1-.86,3,11.18,11.18,0,0,1-1.45,2.3l-.6.83.22.14.59-.81a12.31,12.31,0,0,0,1.48-2.35,12.27,12.27,0,0,0,.87-3.08l.14-.69a2.76,2.76,0,0,1,1.4-2,2.28,2.28,0,0,1,1.91,0,1.76,1.76,0,0,1,1,1.22,2.27,2.27,0,0,1-.48,1.95,1.68,1.68,0,0,1-1.48.49,1.14,1.14,0,0,1-1.12-1.2A1.09,1.09,0,0,1,16,14.79a.71.71,0,0,1,.69.32.77.77,0,0,1,0,.75l.22.14a1,1,0,0,0,0-1,1,1,0,0,0-.93-.45,1.33,1.33,0,0,0-1.15,1.36,1.4,1.4,0,0,0,1.34,1.47,1.9,1.9,0,0,0,1.7-.58,2.52,2.52,0,0,0,.54-2.17,2,2,0,0,0-1.12-1.4A2.49,2.49,0,0,0,15.18,13.17Z"/><path class="cls-1" d="M21.72,8.3l-.43.42a14.13,14.13,0,0,1-2.06,1.94,26.59,26.59,0,0,1-3.63,2.27l-.61.35.14.21.6-.33a28.59,28.59,0,0,0,3.66-2.3,14,14,0,0,0,2.09-2l.36-.36a1.43,1.43,0,0,1,1.43.24,1.13,1.13,0,0,1,.48.9.85.85,0,0,1-.42.71,23.74,23.74,0,0,0-2.67,2.31,19.45,19.45,0,0,0-2.37,3.07l-.37.54.22.14.36-.54a19.63,19.63,0,0,1,2.34-3,24.38,24.38,0,0,1,2.63-2.29A1.12,1.12,0,0,0,24,9.67a1.39,1.39,0,0,0-.58-1.11A1.7,1.7,0,0,0,21.72,8.3Z"/><path class="cls-1" d="M15.47,14.69l.13.23a9.2,9.2,0,0,0,1.93-1.4l-.2-.17A8.37,8.37,0,0,1,15.47,14.69Z"/><path class="cls-1" d="M16.71,15.88,17,16a4.47,4.47,0,0,1,1.36-1.42l-.16-.2A4.54,4.54,0,0,0,16.71,15.88Z"/><path class="cls-1" d="M11.73,23.26l.21.16a5.87,5.87,0,0,0,.87-1.63l-.25-.07A5.72,5.72,0,0,1,11.73,23.26Z"/><path class="cls-1" d="M12.93,24.21l.26,0a3.68,3.68,0,0,1,1-1.8L14,22.26A3.93,3.93,0,0,0,12.93,24.21Z"/><path class="cls-1" d="M34.94,13.24a2,2,0,0,0-1.12,1.4,2.53,2.53,0,0,0,.54,2.18,1.91,1.91,0,0,0,1.7.58,1.4,1.4,0,0,0,1.34-1.47,1.33,1.33,0,0,0-1.15-1.36.94.94,0,0,0-.93.45,1,1,0,0,0,0,1l.22-.14a.77.77,0,0,1,0-.75.69.69,0,0,1,.69-.32,1.06,1.06,0,0,1,.91,1.11A1.13,1.13,0,0,1,36,17.14a1.65,1.65,0,0,1-1.48-.5,2.24,2.24,0,0,1-.48-1.94,1.74,1.74,0,0,1,1-1.22,2.24,2.24,0,0,1,1.91,0,2.74,2.74,0,0,1,1.4,2l.14.7a12.27,12.27,0,0,0,.87,3.08A14.06,14.06,0,0,0,41,21.8l.61.86.22-.14-.62-.87a13.22,13.22,0,0,1-1.59-2.51,12.47,12.47,0,0,1-.86-3l-.13-.7a3,3,0,0,0-1.55-2.21A2.52,2.52,0,0,0,34.94,13.24Z"/><path class="cls-1" d="M28.82,8.6a1.36,1.36,0,0,0-.58,1.11,1.15,1.15,0,0,0,.53.92,23.21,23.21,0,0,1,2.64,2.29,17.9,17.9,0,0,1,2.12,2.69l.57.81.2-.15-.56-.8a17.21,17.21,0,0,0-2.16-2.74,22.79,22.79,0,0,0-2.66-2.31.86.86,0,0,1-.42-.72A1.11,1.11,0,0,1,29,8.8a1.42,1.42,0,0,1,1.43-.23l.36.35a13.42,13.42,0,0,0,2.09,2,27.53,27.53,0,0,0,3.67,2.3l.59.33.14-.22-.6-.34A27.24,27.24,0,0,1,33,10.7,14,14,0,0,1,31,8.75l-.43-.41A1.66,1.66,0,0,0,28.82,8.6Z"/><path class="cls-1" d="M34.72,13.56a7.86,7.86,0,0,0,1.78,1.32l.13-.23a7.64,7.64,0,0,1-1.71-1.26Z"/><path class="cls-1" d="M33.94,14.6A4.47,4.47,0,0,1,35.3,16l.24-.1a4.5,4.5,0,0,0-1.44-1.53Z"/><path class="cls-1" d="M37.55,22.7c-1.19,1.15-1.19,3-1.19,4.05S37,31,39,31.33a1.75,1.75,0,0,0,1.36-.27,1.8,1.8,0,0,0,.69-1.13,1.59,1.59,0,0,0-.58-1.56,1.39,1.39,0,0,0-1.35-.25,1.19,1.19,0,0,0-.76,1,.89.89,0,0,0,.45.87.86.86,0,0,0,.72.13.75.75,0,0,0,.46-.41l-.23-.11a.47.47,0,0,1-.3.27.64.64,0,0,1-.52-.1.64.64,0,0,1-.32-.63,1,1,0,0,1,.6-.79,1.15,1.15,0,0,1,1.09.22,1.35,1.35,0,0,1,.48,1.32,1.52,1.52,0,0,1-.58,1,1.47,1.47,0,0,1-1.16.23c-1.86-.32-2.47-3.26-2.47-4.24s0-2.88,1.11-4a3.34,3.34,0,0,1,2.38-1.06,1.85,1.85,0,0,1,1.36.63,1.66,1.66,0,0,1,0,2.32,1.39,1.39,0,0,1-1.8,0,.92.92,0,0,1-.33-.66.87.87,0,0,1,.24-.65.6.6,0,0,1,.53-.16c.18,0,.31.19.4.44l.24-.09a.86.86,0,0,0-.59-.61.91.91,0,0,0-.77.24A1.17,1.17,0,0,0,39.48,25a1.67,1.67,0,0,0,2.15,0,1.92,1.92,0,0,0,0-2.68,2.14,2.14,0,0,0-1.54-.72A3.61,3.61,0,0,0,37.55,22.7Z"/><path class="cls-1" d="M39.41,21.77a5.85,5.85,0,0,0,.85,1.63l.21-.16a5.8,5.8,0,0,1-.82-1.53Z"/><path class="cls-1" d="M38.07,22.48a3.68,3.68,0,0,1,1,1.8l.26,0a3.92,3.92,0,0,0-1.06-1.94Z"/><path class="cls-1" d="M38.94,31.18l.25.06A3.1,3.1,0,0,1,39.83,30l-.18-.19A3.38,3.38,0,0,0,38.94,31.18Z"/><path class="cls-1" d="M37.6,30.22l.18.18a4.53,4.53,0,0,0,1-1.6l-.24-.08A4.53,4.53,0,0,1,37.6,30.22Z"/><path class="cls-1" d="M23.13,10.78a6.37,6.37,0,0,0,2.87.76,5,5,0,0,0,3.08-.78l-.17-.2a4.71,4.71,0,0,1-2.91.72,6.26,6.26,0,0,1-2.75-.73Z"/><path class="cls-1" d="M38.85,34.48l-.07.28c-.52,2.32-2.09,9.35-12.53,9.35S14,36.92,13.45,34.56l-.09-.35a15.65,15.65,0,0,0-1.64-3.67l-.22.14a14.75,14.75,0,0,1,1.61,3.6l.08.34c.58,2.41,2.33,9.74,13.06,9.74,7.06,0,11.37-3.21,12.78-9.54l.07-.28a12.28,12.28,0,0,1,1.79-4l-.22-.14A12.54,12.54,0,0,0,38.85,34.48Z"/><path class="cls-1" d="M32.17,21.89h-5c-.07,0-.79.58-1,.73l-.92-.7-5.46,0-2.64,2.87,0,8.78h7l.91.92H27.2l.81-.81h6.76v-9.1c0-.09-2.51-2.62-2.51-2.62l0,0Zm-5.91,1,1-.77,4.88,0,2.43,2.5s0,8.5,0,8.75H27.9l-.81.81h-1.9l-.92-.92H17.39V24.85s2.32-2.48,2.52-2.7h5.27s.92.74.92.74l.08.06Z"/><path class="cls-1" d="M19.72,22v8.72h5.63s.78.74.78.74l.09.07,1-.85s5,0,5,0h.13l0-8.71h-.26s0,8.2,0,8.45h-5c-.07,0-.68.56-.87.74l-.78-.69-5.46,0V22Z"/><path class="cls-1" d="M33.31,23.35s0,8.15,0,8.4H27.49c-.09,0-1,.87-1,.87l-.86,0-.8-.8H18.72c0-.25,0-8.39,0-8.39h-.26V32h6.3l.8.8h1.06c.09,0,1-.87,1-.87l6,0V23.35Z"/><path class="cls-1" d="M19.11,22.7l0,8.74H25l.8.83h.68l.75-.85H33V22.77h-.26v8.38l-5.61,0-.75.85h-.45l-.8-.84H19.39c0-.25,0-8.48,0-8.48Z"/><path class="cls-1" d="M34,24v8.55H27.58l-.72.71H25.41l-.7-.87H18c0-.25,0-8.26,0-8.26h-.26v8.52h6.83l.7.87H27l.72-.72h6.52V24Z"/><polygon class="cls-1" points="17.16 33.32 17.35 33.5 19.95 30.7 19.76 30.53 17.16 33.32"/><rect class="cls-1" x="33.27" y="30.16" width="0.26" height="3.73" transform="translate(-12.81 29.47) rotate(-40.63)"/><polygon class="cls-1" points="17.67 5.03 16.26 2.7 15.48 3.12 16.9 5.45 17.67 5.03"/><polygon class="cls-1" points="14.05 7.51 17.83 5.32 19 7.13 18.2 7.58 17.4 6.34 14.41 8.07 14.05 7.51"/><path class="cls-1" d="M13.35,6.7a1.27,1.27,0,0,1-.45-1.9A1.69,1.69,0,0,1,15,4.19a1.27,1.27,0,0,1,.46,1.9A1.72,1.72,0,0,1,13.35,6.7Zm1.56-1.29a.6.6,0,0,0-.68-.61.79.79,0,0,0-.76.68.59.59,0,0,0,.67.61A.81.81,0,0,0,14.91,5.41Z"/><rect class="cls-1" x="111.98" y="6.91" width="4.77" height="12.09"/><polygon class="cls-1" points="93.06 20.1 116.82 20.1 116.82 29.64 111.84 29.64 111.84 23.07 93.06 23.07 93.06 20.1"/><path class="cls-1" d="M92.37,12.71c0-3.56,3.58-6.45,8-6.45s8,2.89,8,6.45-3.59,6.45-8,6.45S92.37,16.27,92.37,12.71Zm8,3.23a3.33,3.33,0,0,0,3.42-3.23,3.43,3.43,0,0,0-6.84,0A3.33,3.33,0,0,0,100.38,15.94Z"/><polygon class="cls-1" points="131.53 6.84 119.95 6.84 119.95 29.57 138.52 29.57 138.52 18.07 140.14 18.07 140.14 29.57 145.15 29.57 145.15 6.84 140.21 6.84 140.21 14.82 138.59 14.82 138.59 6.91 133.65 6.91 133.65 26.61 124.26 26.61 124.26 9.38 131.53 9.38 131.53 6.84"/><polygon class="cls-1" points="167.97 6.84 173.53 6.84 173.53 13.97 176.57 13.97 176.57 17.29 173.53 17.29 173.53 21.03 167.96 21.01 167.97 6.84"/><polygon class="cls-1" points="147.91 21.67 173.6 21.67 173.6 29.5 167.95 29.5 167.95 24.99 147.91 24.99 147.91 21.67"/><polygon class="cls-1" points="176.62 6.78 201.56 6.77 201.56 26.54 204.24 26.54 204.24 29.57 175.72 29.57 175.72 26.54 180.8 26.54 180.8 14.1 185.96 14.1 185.96 26.59 188.06 26.59 188.06 14.03 193.01 14.03 193.01 26.61 196.45 26.61 196.47 9.95 176.66 9.97 176.62 6.78"/><rect class="cls-1" x="149.04" y="6.77" width="14.75" height="2.82"/><path class="cls-1" d="M166.33,10.37h-20v3h3.44a4,4,0,0,0-1.1,2.68c0,2.87,3.44,5.19,7.69,5.19s7.68-2.32,7.68-5.19a4,4,0,0,0-1.1-2.68h3.37Zm-7,5.65a3,3,0,1,1-6,0,3.1,3.1,0,0,1,1.51-2.68h3A3.11,3.11,0,0,1,159.37,16Z"/><path class="cls-1" d="M90.43,7.39H78.12v-2h-5v2H60.89l0,3h3.55a3,3,0,0,0-1.4,2.21c0,2.32,4.42,4.42,9.39,5v.56H60.38v2.9h4.93c-1.83,1-2.92,2.36-2.92,3.8,0,3.35,5.9,6.06,13.19,6.06s13.19-2.71,13.19-6.06c0-1.44-1.1-2.76-2.92-3.8h4.51v-2.9H78.27v-.54c5-.62,9.38-2.73,9.38-5.06a3,3,0,0,0-1.33-2.21h4.11ZM75.58,27.91c-4.54,0-8.21-1.48-8.21-3.32s3.67-3.32,8.21-3.32,8.2,1.49,8.2,3.32S80.11,27.91,75.58,27.91Zm0-13c-3.75,0-6.56-.79-6.56-2.3s2.7-2.2,6.45-2.2,6.24.79,6.24,2.31S79.28,14.87,75.53,14.87Z"/><path class="cls-1" d="M66.54,40.24V35.58H69V47.23H66.55V42H63.75v5.2H61.32V35.58h2.44v4.66Z"/><path class="cls-1" d="M74.71,45.68c-1.37,0-1.55-1.29-1.55-4.28s.17-4.28,1.54-4.28,1.56,1.29,1.56,4.28S76.08,45.68,74.71,45.68Zm0,1.74c4,0,4-3,4-6s0-6-4-6-4,2.94-4,6S70.69,47.42,74.71,47.42Z"/><path class="cls-1" d="M80.5,47.22V35.57h3.29l3.1,8.07h0V35.57H89.2V47.22H86L82.81,38.7h0v8.52Z"/><path class="cls-1" d="M96.59,39.15c0-1.08-.17-2-1.46-2-1.51,0-1.51,2.06-1.51,4.32,0,3.64.36,4.29,1.74,4.29a3.77,3.77,0,0,0,1.21-.23V42.91H95.25V41.12H99V47a22,22,0,0,1-3.29.39c-4.1,0-4.57-1.69-4.57-6.11,0-2.94.14-5.93,4.13-5.93,2.39,0,3.87,1.34,3.73,3.78Z"/><path class="cls-1" d="M101,47.22V35.56h2.44V47.22Z"/><path class="cls-1" d="M110.89,35.56h2.68l-3.26,5.23,3.27,6.42h-2.75l-2.79-6h0v6h-2.44V35.56H108v5h0Z"/><path class="cls-1" d="M128.67,35.55v8.27c0,1.74-1,3.58-3.95,3.58-2.68,0-4-1.38-4-3.58V35.56h2.43v8.11c0,1.43.61,2,1.5,2,1.07,0,1.55-.71,1.55-2V35.55Z"/><path class="cls-1" d="M131,47.21V35.55h3.29l3.1,8.07h0V35.55h2.28V47.2h-3.21l-3.18-8.52h0V47.2Z"/><path class="cls-1" d="M142,47.2V35.55h2.43V47.2Z"/><path class="cls-1" d="M146.18,35.55h2.53L150.52,44h0l2-8.48H155L151.91,47.2h-2.85Z"/><path class="cls-1" d="M156.54,47.2V35.54h6.36v1.79H159v2.88h3.61V42H159v3.4H163v1.79Z"/><path class="cls-1" d="M167.56,37.33h1.07c.78,0,1.25.42,1.25,1.53,0,.74-.27,1.71-1.24,1.71h-1.08Zm0,5h.62c1.88,0,1.75,1.17,1.75,2.56a5.39,5.39,0,0,0,.26,2.26h2.39a15.68,15.68,0,0,1-.28-3.42,2.06,2.06,0,0,0-2.11-2.29v0c1.58-.26,2.16-1.38,2.16-2.86,0-2-1.07-3.05-2.73-3.05h-4.5V47.19h2.44Z"/><path class="cls-1" d="M177.46,47.38c-3,0-3.58-1.77-3.46-3.79h2.44c0,1.11.05,2,1.39,2a1.17,1.17,0,0,0,1.23-1.33c0-2.09-4.91-2.22-4.91-5.69,0-1.82.87-3.28,3.84-3.28,2.37,0,3.55,1.06,3.39,3.5H179c0-.87-.15-1.76-1.13-1.76a1.14,1.14,0,0,0-1.26,1.25c0,2.21,4.9,2,4.91,5.68C181.53,47,179.32,47.38,177.46,47.38Z"/><path class="cls-1" d="M183.3,47.19V35.53h2.44V47.18Z"/><path class="cls-1" d="M195.21,35.53v1.94h-2.72v9.71h-2.44V37.47h-2.72V35.53Z"/><path class="cls-1" d="M199.26,43.15l-3-7.62h2.66l1.75,4.92,1.85-4.93H205l-3.26,7.62v4h-2.44Z"/></g></g></svg>