<svg xmlns="http://www.w3.org/2000/svg" viewBox="0 0 53 53"><defs><style>.cls-1{fill:#231815;}</style></defs><g id="레이어_2" data-name="레이어 2"><g id="Layer_1" data-name="Layer 1"><path class="cls-1" d="M15.71,33v0a.38.38,0,0,1,0,.1.11.11,0,0,1,0,.07.2.2,0,0,1-.11.11.49.49,0,0,1-.17.06.55.55,0,0,1-.23,0,.33.33,0,0,1-.16-.15.45.45,0,0,1,0-.08A.64.64,0,0,1,15,33l.19,0,.21,0,.32,0A.08.08,0,0,0,15.71,33Zm-.12-.44h-.07l-.3,0-.39.06-.4.06H14a.51.51,0,0,0,0,.09.83.83,0,0,1,0,.13s0,0,0,.1,0,.09,0,.11l.2,0,.21,0,.18,0,.18,0v0s0,0,0,.06l0,.08s0,.08,0,.11a1.35,1.35,0,0,0,.08.19.4.4,0,0,0,.14.15.46.46,0,0,0,.19.08h.21a.43.43,0,0,0,.27-.13.41.41,0,0,0,.11-.28.38.38,0,0,0,0-.15s0-.09,0-.14,0,0,0-.13l0-.19,0-.24Z"/><path class="cls-1" d="M16,34.41a.47.47,0,0,1,0,.2c0,.07-.06.11-.14.15l-.13,0a.33.33,0,0,1-.44-.26.15.15,0,0,0,0-.07l.19,0,.2,0,.31-.06A.26.26,0,0,0,16,34.41Zm-1.47,1a.42.42,0,0,1,0,.11.44.44,0,0,0,0,.13l.13-.12a2.4,2.4,0,0,1,.23-.23l.39-.38a.52.52,0,0,0,.22.26.47.47,0,0,0,.33,0,.41.41,0,0,0,.21-.1.53.53,0,0,0,.12-.21.43.43,0,0,0,0-.16c0-.06,0-.14-.05-.26a1.62,1.62,0,0,0,0-.19c0-.06,0-.12,0-.18l0-.18-.36.09-.21,0-.46.1-.21,0-.3.06-.17,0h-.05l0,.09a1,1,0,0,0,0,.12.44.44,0,0,0,0,.09s0,.09,0,.12l.12,0,.14,0h.07l.46-.1h0l0,0-.11.1-.12.11-.47.4A1.58,1.58,0,0,1,14.53,35.37Z"/><path class="cls-1" d="M15.14,36.37a.92.92,0,0,1,.41-.29l.29-.08a1.37,1.37,0,0,1,.28,0,.7.7,0,0,1,.26.1.36.36,0,0,1,.11.1.87.87,0,0,1,.08.14.48.48,0,0,1-.08.49.92.92,0,0,1-.41.29l-.28.08h-.27a.63.63,0,0,1-.28-.11.51.51,0,0,1-.17-.23A.49.49,0,0,1,15.14,36.37Zm1.24,1.06.17-.13a.7.7,0,0,0,.13-.17,1,1,0,0,0,.08-.21.82.82,0,0,0,0-.31,1.16,1.16,0,0,0-.08-.32,1.31,1.31,0,0,0-.19-.35,1,1,0,0,0-.29-.25,1,1,0,0,0-.37-.1.89.89,0,0,0-.39.06,1.06,1.06,0,0,0-.33.19.7.7,0,0,0-.21.29.77.77,0,0,0-.08.37,1.36,1.36,0,0,0,.08.39,1.37,1.37,0,0,0,.19.34,1.05,1.05,0,0,0,.3.25.79.79,0,0,0,.37.1.84.84,0,0,0,.39-.06A.72.72,0,0,0,16.38,37.43Z"/><path class="cls-1" d="M17.45,37.94l.07.1.05.08.09.09.06.07-.16.11-.14.1-.09.07-.19.15.14.18.11.14.14.18a1,1,0,0,1,.11.13l.29-.24A.44.44,0,0,0,18,39l.17-.14.07.1s0,.07.05.07l.08.09.07.08-.11.07-.19.13-.48.37-.24.2c-.24.21-.38.32-.39.34l-.07-.1,0-.08-.09-.1L16.78,40l.3-.21.3-.23.1-.07-.24-.32L17,38.84l-.25.2-.23.19a1.28,1.28,0,0,1-.19.16s0,0-.06-.09l-.05-.08-.09-.1L16,39.05l.29-.22.49-.35.24-.2Z"/><path class="cls-1" d="M18.15,40.86a.8.8,0,0,1,.19-.46,1.45,1.45,0,0,1,.19-.23,1.7,1.7,0,0,1,.23-.17.6.6,0,0,1,.27-.06.33.33,0,0,1,.15,0,.41.41,0,0,1,.14.08.49.49,0,0,1,.2.45.91.91,0,0,1-.19.46,1.2,1.2,0,0,1-.42.37.79.79,0,0,1-.29.06.6.6,0,0,1-.27-.1A.49.49,0,0,1,18.15,40.86Zm1.61.22a1.18,1.18,0,0,0,.07-.2.55.55,0,0,0,0-.22,1,1,0,0,0,0-.22,1.17,1.17,0,0,0-.15-.27.88.88,0,0,0-.24-.23,1.05,1.05,0,0,0-.34-.19,1,1,0,0,0-.38,0,.89.89,0,0,0-.37.11,1,1,0,0,0-.3.27,1,1,0,0,0-.17.33.74.74,0,0,0,0,.36.89.89,0,0,0,.14.35,1.53,1.53,0,0,0,.28.29,1.46,1.46,0,0,0,.35.18,1,1,0,0,0,.38,0,.94.94,0,0,0,.37-.11,1.1,1.1,0,0,0,.3-.27A1.74,1.74,0,0,0,19.76,41.08Z"/><path class="cls-1" d="M20.06,41.35l.4-.68.06,0,0,0,.06,0h0c0,.2,0,.36,0,.46s0,.19,0,.46l0,.46.26-.22.78-.69h0a.05.05,0,0,0,0,0l0,0,.1,0-.22.75c-.05.19-.09.33-.12.43l-.12.45a.13.13,0,0,1,0,.05s0,0,0,.06L21.4,43l-.09,0-.11,0-.09,0a3.87,3.87,0,0,0,.19-.55q.09-.31.18-.6c-.12.09-.23.19-.34.29l-.34.29-.33.31,0,0h0l0-.47q0-.22,0-.42c0-.14,0-.28,0-.42l-.23.4-.14.27-.12.23-.07.15-.07,0h0l-.12,0,0,0,0,0,.11-.17a1.45,1.45,0,0,1,.12-.19l.14-.23Z"/><path class="cls-1" d="M22.84,41.51l0,.12-.07.21c0,.06,0,.14-.07.25s-.06.19-.08.25l-.06.26a1.91,1.91,0,0,1-.06.27s0,.1,0,.23a.83.83,0,0,1,0,.15l-.11,0-.08,0-.23,0c0-.1.06-.21.1-.35.1-.3.15-.5.17-.58l0-.13.08-.33,0-.14a2,2,0,0,0,0-.21l.12,0,.08,0,.12,0Z"/><path class="cls-1" d="M23.19,43.43h0l-.1,0H23c0-.17.09-.36.13-.58s.07-.44.1-.65l.06-.42,0-.12.11,0h.12l.32.46c.1.15.21.3.31.46s.24.35.31.47l.09-.57,0-.29s0-.09,0-.16,0-.12,0-.16v0l.06,0h.17l0,.14a.5.5,0,0,1,0,.12c0,.11,0,.18-.05.21s0,.16,0,.26,0,.16,0,.22l0,.27-.09.55h0l-.08,0h-.11c-.1-.17-.18-.29-.23-.36s-.15-.25-.23-.36-.14-.2-.24-.36l-.24-.33-.06.34,0,.24c0,.05,0,.19-.05.42Z"/><path class="cls-1" d="M26.79,41.93c0,.07,0,.13,0,.19s0,.12,0,.2l0,.25v.29a2.37,2.37,0,0,1-.05.42.59.59,0,0,1-.25.33.67.67,0,0,1-.23.1l-.27,0a1.15,1.15,0,0,1-.46-.11.55.55,0,0,1-.29-.36.18.18,0,0,0,0-.06v-.08a.11.11,0,0,1,0-.05v-1.2h.22a.74.74,0,0,0,.21,0V42c0,.07,0,.17,0,.31s0,.24,0,.3V43a.69.69,0,0,0,0,.2.75.75,0,0,0,0,.16.31.31,0,0,0,.09.13.45.45,0,0,0,.29.12.64.64,0,0,0,.3-.06.58.58,0,0,0,.18-.24.57.57,0,0,0,0-.22,2.88,2.88,0,0,0,0-.32c0-.09,0-.22,0-.4a2.61,2.61,0,0,1,0-.4l.07,0h.19Z"/><path class="cls-1" d="M27.25,42.72l0-.79h.22c.1.17.17.31.23.39l.24.39c.08.14.16.27.25.4l.12-.32c.13-.33.26-.66.37-1h.11l.11,0c.06.32.12.57.16.77s.08.34.1.44l.1.45s0,0,0,0a.13.13,0,0,1,0,.06h-.21l-.12,0-.09,0a5.46,5.46,0,0,0-.1-.58c0-.21-.08-.42-.13-.62-.05.14-.1.28-.16.42l-.15.42c0,.09-.09.24-.15.42h-.1l-.24-.4-.22-.36-.23-.36v1.19H27.3l-.12,0v-.05a.2.2,0,0,0,0,0s0-.11,0-.2,0-.14,0-.22,0-.17,0-.27A2,2,0,0,0,27.25,42.72Z"/><path class="cls-1" d="M30.51,41.76l-.06-.2.07,0,.05,0a.3.3,0,0,1,.21,0s0,0,.08.08a.41.41,0,0,1,.06.11.31.31,0,0,1,0,.16.28.28,0,0,1,0,.13.19.19,0,0,1-.09.09l-.14.06h0l-.08-.26A1,1,0,0,1,30.51,41.76Zm.74.12a.36.36,0,0,0,0-.32.32.32,0,0,0-.25-.25.69.69,0,0,0-.37,0l-.35.12-.29.09c0,.07.07.19.12.34s.09.26.12.33,0,.11.09.29.09.32.12.4a1.21,1.21,0,0,0,.05.18c0,.07,0,.12,0,.17l.21-.08.37-.11.09,0,.07,0a.76.76,0,0,0,.15-.1.36.36,0,0,0,.11-.14.5.5,0,0,0,0-.38.45.45,0,0,0-.23-.26l-.18,0-.17,0v0A.65.65,0,0,0,31.25,41.88Zm-.57.43,0,0h.05a.32.32,0,0,1,.27,0,.38.38,0,0,1,.17.24.36.36,0,0,1,0,.25.24.24,0,0,1-.06.11L31,43l-.13,0-.1-.31Z"/><path class="cls-1" d="M31.47,41.08l0,0,.19-.08.19-.09.3-.15.23-.12a.76.76,0,0,0,0,.11l0,0,0,0,0,0-.28.12-.27.12.11.24.13.27.52-.28a.33.33,0,0,0,0,.06.08.08,0,0,0,0,0s0,0,0,0l0,0-.21.09-.22.09-.11.06.14.3.15.29.53-.29a.26.26,0,0,0,0,.1s0,0,0,0l0,0,0,0-.22.1-.22.09-.27.15-.21.1-.06-.13-.2-.45-.17-.36-.14-.27-.07-.14Z"/><path class="cls-1" d="M33.83,41.8h0l-.09.06-.08.08c-.09-.15-.2-.31-.33-.5l-.39-.53-.25-.33-.08-.1.1-.06.09-.08.55.1.55.1.55.11-.34-.47L33.91,40a.77.77,0,0,0-.1-.12.77.77,0,0,1-.1-.12l0,0,.06,0,0,0,0,0,0,0,.08.12.07.1.11.18.15.21.13.19.17.21.33.45h0l-.06,0a.32.32,0,0,0-.09.08l-.41-.1L33.89,41l-.42-.08-.41-.07.21.29.14.19.26.33Z"/><path class="cls-1" d="M34.08,39.34l0,0,.14-.15a1,1,0,0,0,.15-.15l.22-.25.17-.19.07.08,0,0,0,0,0,0a2,2,0,0,1-.21.21l-.21.21.2.19.21.19.39-.45,0,0,0,0,0,0,0,0-.16.16-.17.17-.09.09.25.23.25.22.38-.47.07.08,0,0,0,0,0,0-.16.17-.16.17-.21.23-.15.18-.1-.1-.36-.34-.29-.27-.23-.21-.11-.1Z"/><path class="cls-1" d="M34.9,38.4l0,0s.07-.09.12-.17a.91.91,0,0,0,.12-.17l.19-.28c.07-.12.12-.19.13-.22l.09.08h0l0,0h0l-.18.24-.18.24.23.15.24.17L36,38l.05,0,0,0,0,0,0,0-.14.18a2.12,2.12,0,0,0-.14.19l-.08.11.25.17.47.29a.36.36,0,0,1-.07.09l-.06.08a.54.54,0,0,0-.06.11l0,.08-.12-.09-.4-.29-.32-.22-.26-.17-.13-.09Z"/><path class="cls-1" d="M35.74,36.94l.11.07.19.11.23.13a1.28,1.28,0,0,0,.22.12l.24.12.25.12.22.1.13.07-.06.1-.05.07-.09.21L36.81,38a5.12,5.12,0,0,0-.52-.3l-.13-.07-.3-.15-.13-.07-.19-.08a.44.44,0,0,0,.06-.1l0-.08A1.17,1.17,0,0,0,35.7,37C35.72,37,35.74,37,35.74,36.94Z"/><path class="cls-1" d="M37.8,35.83l0,0,.19.14a.77.77,0,0,1,0,.26,1.11,1.11,0,0,1-.07.26,2,2,0,0,1-.09.2l-.07.11-.1.12-.11.1-.13.07-.12,0a.84.84,0,0,1-.27,0,.9.9,0,0,1-.27-.07.88.88,0,0,1-.37-.21.71.71,0,0,1-.22-.33.82.82,0,0,1,0-.38,1.77,1.77,0,0,1,.08-.4,1.23,1.23,0,0,1,.14-.25,1.2,1.2,0,0,1,.17-.21l.11.08.12.07v0a.57.57,0,0,0-.23.12.48.48,0,0,0-.14.2.55.55,0,0,0,.06.53,1.1,1.1,0,0,0,.45.33,1.5,1.5,0,0,0,.29.06.62.62,0,0,0,.27,0,.5.5,0,0,0,.22-.13.57.57,0,0,0,.15-.23.69.69,0,0,0,0-.25A.71.71,0,0,0,37.8,35.83Z"/><path class="cls-1" d="M36.59,34.59l.13,0,.21.07.24.07.25.08.26.06L38,35l.23.05.15,0,0,.11,0,.09a1.24,1.24,0,0,0,0,.22l-.35-.1c-.3-.1-.5-.15-.58-.17l-.13,0-.33-.08-.14,0-.21,0s0-.07,0-.12a.42.42,0,0,0,0-.09,1,1,0,0,0,0-.12A.55.55,0,0,1,36.59,34.59Z"/><path class="cls-1" d="M38.23,34a.79.79,0,0,1-.49.05,1.46,1.46,0,0,1-.3-.07,1.15,1.15,0,0,1-.25-.12.63.63,0,0,1-.18-.21.48.48,0,0,1,0-.14,1,1,0,0,1,0-.16.5.5,0,0,1,.3-.39.92.92,0,0,1,.5,0l.29.07a.86.86,0,0,1,.23.13.53.53,0,0,1,.19.23.52.52,0,0,1,0,.28A.48.48,0,0,1,38.23,34Zm-.55-1.52-.22,0a.5.5,0,0,0-.2.08,1,1,0,0,0-.17.14,1,1,0,0,0-.27.58,1.27,1.27,0,0,0,0,.39.92.92,0,0,0,.13.36,1.07,1.07,0,0,0,.28.28,1.11,1.11,0,0,0,.36.13,1.21,1.21,0,0,0,.38,0,.71.71,0,0,0,.33-.15.79.79,0,0,0,.25-.29,1.15,1.15,0,0,0,.12-.37,1.34,1.34,0,0,0,0-.4,1,1,0,0,0-.41-.63,1,1,0,0,0-.37-.14A.74.74,0,0,0,37.68,32.49Z"/><path class="cls-1" d="M22.38,36.46V36l0,0a2.55,2.55,0,0,1-.33.17L22,36,21.9,36v0c.14,0,.29-.1.44-.17l.43-.21.06,0c0,.13,0,.27,0,.44,0,.4,0,.64,0,.75V37c0,.07,0,.18,0,.34s0,.26,0,.34h-.48l0-.24c0-.14,0-.33,0-.55S22.38,36.49,22.38,36.46Z"/><path class="cls-1" d="M25.29,36.52a.21.21,0,0,1-.2.15.22.22,0,0,1-.2-.12.8.8,0,0,1-.05-.23v-.13a.84.84,0,0,1,.05-.29.22.22,0,0,1,.21-.17.23.23,0,0,1,.22.19,1.27,1.27,0,0,1,0,.32A.61.61,0,0,1,25.29,36.52Zm-.71,1,0,.06s0,0,0,0h0l.09,0h.09a1,1,0,0,0,.41-.1.84.84,0,0,0,.31-.28,1.32,1.32,0,0,0,.18-.4,2.3,2.3,0,0,0,.05-.45,1.12,1.12,0,0,0,0-.32.8.8,0,0,0-.13-.28.67.67,0,0,0-.25-.19.88.88,0,0,0-.33-.06,1.09,1.09,0,0,0-.26,0,.71.71,0,0,0-.37.37.81.81,0,0,0,0,.29.51.51,0,0,0,.17.4.64.64,0,0,0,.43.15.46.46,0,0,0,.36-.15h0v0a1.11,1.11,0,0,1-.12.52.45.45,0,0,1-.41.29.3.3,0,0,1-.14,0l-.12-.08,0,0A.88.88,0,0,1,24.58,37.53Z"/><path class="cls-1" d="M27.42,36.27l.21-.31h0v.85h-.56v0Zm-.55.64s0,.06,0,.08a.19.19,0,0,1,0,.08.42.42,0,0,1,0,.07h.8c0,.09,0,.19,0,.27s0,.16,0,.22h.46v-.49l.26,0a.8.8,0,0,0,0-.11v-.16s0-.06,0-.08h-.26V36s0-.09,0-.22V35.6l-.19,0h-.2l-.17.26-.18.27-.22.33-.27.39S26.87,36.89,26.87,36.91Z"/><path class="cls-1" d="M29.89,36.75a.22.22,0,0,1,.42,0,.9.9,0,0,1,0,.31.85.85,0,0,1,0,.29c0,.11-.12.17-.21.17s-.18-.06-.22-.19a.92.92,0,0,1,0-.32A.78.78,0,0,1,29.89,36.75Zm.61-1.13-.15,0h-.06l-.13,0-.18.05a.65.65,0,0,0-.16.09,1,1,0,0,0-.33.49,1.81,1.81,0,0,0-.1.58,1.55,1.55,0,0,0,0,.31,1.59,1.59,0,0,0,.12.27.71.71,0,0,0,.23.19l.15,0a.58.58,0,0,0,.18,0,.71.71,0,0,0,.5-.18.62.62,0,0,0,.21-.49.52.52,0,0,0-.18-.42.63.63,0,0,0-.44-.15.43.43,0,0,0-.34.15l0,0a1.33,1.33,0,0,1,0-.28,1.54,1.54,0,0,1,.05-.17.5.5,0,0,1,.1-.19.43.43,0,0,1,.14-.13.35.35,0,0,1,.19-.06h.1l.09,0h0A.61.61,0,0,0,30.5,35.62Z"/><path class="cls-1" d="M3.67,23.77a1.24,1.24,0,1,0-1.24-1.24A1.25,1.25,0,0,0,3.67,23.77Z"/><path class="cls-1" d="M49.19,23.36A1.24,1.24,0,1,0,48,22.13,1.23,1.23,0,0,0,49.19,23.36Z"/><polygon class="cls-1" points="4.54 13.3 5.79 11.62 5.43 11.38 5.95 10.68 6.31 10.92 7.58 9.21 8.12 9.57 5.07 13.67 4.54 13.3"/><polygon class="cls-1" points="8.78 12.55 7.93 11.98 7.33 12.78 8.18 13.35 8.78 12.55"/><polygon class="cls-1" points="10.06 10.88 9.53 10.53 6.43 14.7 6.95 15.05 10.06 10.88"/><path class="cls-1" d="M7.54,13c-.65.67-1.42,1-1.85.68s-.35-1.38.35-2.32,1.69-1.44,2.2-1.1.38,1.06-.05,1.86m-.82.13c.36-.48.47-1,.24-1.15s-.7.12-1.05.6-.47,1-.24,1.14S7,12.69,7.37,12.21Z"/><path class="cls-1" d="M7.85,15.23c-.61-.41-.49-1.55.27-2.57s1.85-1.5,2.46-1.1.49,1.56-.27,2.57S8.46,15.64,7.85,15.23Zm1.92-1.46c.47-.63.58-1.32.25-1.55s-1,.11-1.46.74S8,14.28,8.32,14.5,9.3,14.4,9.77,13.77Z"/><polygon class="cls-1" points="26.19 1.18 24.13 1.18 24.13 6 27.44 6 27.44 3.56 27.73 3.56 27.73 6 28.62 6 28.62 1.18 27.74 1.18 27.74 2.87 27.45 2.87 27.45 1.2 26.57 1.2 26.57 5.37 24.89 5.37 24.89 1.72 26.19 1.72 26.19 1.18"/><polygon class="cls-1" points="45.59 9.45 48.14 12.91 44.53 15.29 44.81 15.66 44.25 16.03 41.33 12.05 41.88 11.69 42.41 12.39 44.67 10.9 45.2 11.62 42.92 13.12 43.14 13.41 45.43 11.9 45.94 12.6 43.64 14.11 43.98 14.6 47.04 12.59 45.02 9.81 45.59 9.45"/><polygon class="cls-1" points="36.71 3.04 38.92 4.43 38.62 4.86 36.42 3.48 36.71 3.04"/><polygon class="cls-1" points="35.87 3.43 38.85 5.3 38.49 5.83 35.52 3.96 35.87 3.43"/><polygon class="cls-1" points="39.53 4.83 40.36 5.36 39.48 6.61 39.94 6.9 39.53 7.49 39.08 7.2 38.66 7.79 37.85 7.28 39.53 4.83"/><polygon class="cls-1" points="34.73 5.57 38.55 7.98 37.59 9.36 36.75 8.83 37.3 8.04 34.32 6.16 34.73 5.57"/><path class="cls-1" d="M35.53,4.65a1.33,1.33,0,0,1,1.79-.2,1.19,1.19,0,0,1,.5,1.64A1.32,1.32,0,0,1,36,6.28,1.18,1.18,0,0,1,35.53,4.65Zm.77,1.27a.64.64,0,0,0,.82-.27.59.59,0,0,0-.06-.83.66.66,0,0,0-.83.27A.58.58,0,0,0,36.3,5.92Z"/><path class="cls-1" d="M1.73,31.64l4.16-1.23.17.57-1.72.51L5,33.65l1.72-.51.17.57L2.71,35l-.17-.57,2-.58-.64-2.16-1.95.57Z"/><path class="cls-1" d="M4.37,36.56a2,2,0,0,1,.92-.87,1.91,1.91,0,0,1,1.4-.24,1.43,1.43,0,0,1,.92.77,1.39,1.39,0,0,1,.08,1.19,1.85,1.85,0,0,1-.92.91,2.34,2.34,0,0,1-1.3.27,1.2,1.2,0,0,1-1-.75A1.37,1.37,0,0,1,4.37,36.56Zm2.22-1.73a2.58,2.58,0,0,0-1.55.3,2.48,2.48,0,0,0-1.2,1.19A2,2,0,0,0,4,38a2,2,0,0,0,1.43,1.13,2.53,2.53,0,0,0,1.66-.3A2.4,2.4,0,0,0,8.17,37.8,2,2,0,0,0,8.06,36,2,2,0,0,0,6.59,34.83Z"/><path class="cls-1" d="M6.1,41.37l2.77-2.16-1.4,3.91.41.52L11.3,41,11,40.53,8.18,42.69,9.61,38.8l-.43-.54L5.76,40.93Z"/><path class="cls-1" d="M11.73,42.11a2.48,2.48,0,0,0-1.58.94,2.35,2.35,0,0,0-.65,1.7A1.89,1.89,0,0,0,10.18,46a1.93,1.93,0,0,0,.89.47,2,2,0,0,0,.7,0l-.25.52.29.24,1.5-1.77-1.45-1.23-.32.37,1,.88a1.41,1.41,0,0,1-1,.59,1.43,1.43,0,0,1-1-.38,1.24,1.24,0,0,1-.53-1.08,2.24,2.24,0,0,1,.56-1.19,2,2,0,0,1,1.19-.75,1.31,1.31,0,0,1,1.06.31,1.58,1.58,0,0,1,.51.71,1.11,1.11,0,0,1-.12.82l.44.37a1.5,1.5,0,0,0,.17-1.42,2.16,2.16,0,0,0-.65-.86A1.85,1.85,0,0,0,11.73,42.11Z"/><path class="cls-1" d="M13.54,48.21l2.37-3.64-.5-.32-2.36,3.64Z"/><path class="cls-1" d="M14.44,48.71l2.08-3.82.5.28L16,47l2.87-.85.71.39-2.42.67.39,3.17L16.89,50,16.6,47.4l-.93.25L14.94,49Z"/><path class="cls-1" d="M21.2,49.27a2.92,2.92,0,0,0,0,1.26,1.53,1.53,0,0,0,1.34,1A1.53,1.53,0,0,0,24.15,51a2.87,2.87,0,0,0,.42-1.18l.42-2.4-.59-.1L23.94,50a1.55,1.55,0,0,1-.27.71,1,1,0,0,1-1.09.33.93.93,0,0,1-.79-.62,1.5,1.5,0,0,1,0-.8L22.21,47l-.59-.1Z"/><path class="cls-1" d="M26.29,51.86l-.08-3.52,2.3,3.47.66,0-.09-4.33h-.56L28.59,51l-2.26-3.47-.7,0,.09,4.34Z"/><path class="cls-1" d="M31.23,51.44l-.74-4.28-.59.1.75,4.28Z"/><path class="cls-1" d="M31,47.15l.62-.2,2.32,3.14,0-3.9.63-.2-.18,4.62-.6.19Z"/><path class="cls-1" d="M39.77,48.1l-.25-.45L37.21,48.9l-.7-1.29,2.1-1.14L38.37,46l-2.1,1.14L35.64,46l2.28-1.24-.26-.47-2.78,1.51L37,49.63Z"/><path class="cls-1" d="M39,44l1.12-.9a1.14,1.14,0,0,1,.43-.23.79.79,0,0,1,.84.9,1.11,1.11,0,0,1-.4.53l-1.06.86Zm2.4,3-1.16-1.45,1-.84a1.37,1.37,0,0,1,.46-.27.6.6,0,0,1,.61.25l.48.54.23.25.13.08.56-.45L43.66,45a.33.33,0,0,1-.31-.09,1.53,1.53,0,0,1-.27-.26l-.38-.44a.89.89,0,0,0-.45-.33.85.85,0,0,0-.47,0,1.1,1.1,0,0,0,.1-.59,1.15,1.15,0,0,0-.27-.6,1,1,0,0,0-1.12-.41,2,2,0,0,0-.73.4L38.19,44l2.73,3.38Z"/><path class="cls-1" d="M44.54,43.8a1.87,1.87,0,0,0,1.15-.68A2.38,2.38,0,0,0,46.25,42a1.09,1.09,0,0,0-.43-1.08,1.05,1.05,0,0,0-.94-.27,2.21,2.21,0,0,0-.65.33l-.5.37a4.06,4.06,0,0,1-.7.44.5.5,0,0,1-.53-.11.68.68,0,0,1-.23-.5,1.06,1.06,0,0,1,.33-.71,1.07,1.07,0,0,1,.85-.46,1,1,0,0,1,.53.21l.36-.42a1.16,1.16,0,0,0-1.1-.33,2,2,0,0,0-1,.65,1.68,1.68,0,0,0-.47,1.11,1.27,1.27,0,0,0,.46.94.9.9,0,0,0,.89.22,2.7,2.7,0,0,0,.75-.42l.49-.36a2.3,2.3,0,0,1,.65-.36.56.56,0,0,1,.53.17.68.68,0,0,1,.15.82,2,2,0,0,1-.33.52,1.13,1.13,0,0,1-1,.49,1.16,1.16,0,0,1-.57-.26l-.36.42A1.4,1.4,0,0,0,44.54,43.8Z"/><path class="cls-1" d="M47.75,40.2l-3.58-2.44-.34.49,3.59,2.44Z"/><path class="cls-1" d="M44.46,37.43,46.1,34.3l.45.24-.68,1.3,3.39,1.78-.28.52L45.6,36.37l-.68,1.3Z"/><path class="cls-1" d="M50.73,34.1l.18-.56L49.24,33l-2-2.35-.21.65,1.61,1.83-2.37.55-.2.65,3-.77Z"/><polygon class="cls-1" points="20.43 19.41 20.43 15.32 29.46 15.32 29.46 16.66 29.72 16.66 29.72 15.07 20.18 15.07 20.18 19.67 23.53 19.67 23.53 19.41 20.43 19.41"/><path class="cls-1" d="M29.15,23.52l-.12.1a2.78,2.78,0,0,1-.05.77.41.41,0,0,1-.36.08c-.05,0,0-.1-.05-.17h-.42l0,.48c.25,0,.49.11.66-.15.14.12.39.21.4.41a.27.27,0,0,1-.17.11,4.49,4.49,0,0,1-.1.67.51.51,0,0,0,.3,0,16.31,16.31,0,0,0,.39-2.64,3.19,3.19,0,0,1,.75.13c0,.06-.06.09-.11.1l0,0a17.94,17.94,0,0,1-.79,2.38h0l.87-.06a2.48,2.48,0,0,0-.28-1,.49.49,0,0,1,.31.19,1.36,1.36,0,0,1,.51,1.26.32.32,0,0,1-.2.25.29.29,0,0,1-.24,0c-.12-.1-.09-.27-.1-.43-.37.1-.73.27-1.11.39,0,0,0,.15-.12.1s-.11-.33-.19-.48c-.07.2-.22.48-.47.5-.08,0-.2,0-.24-.06s0-.3-.17-.31-.16,0-.21-.1c.21-.05.55.14.66-.17a3.44,3.44,0,0,0,.13-.87,2,2,0,0,0-.49,0c0,.11,0,.19-.14.22a.7.7,0,0,1-.29,0c-.09-.11,0-.24,0-.35a6.44,6.44,0,0,0,.1-.87l.4.19h.41c0-.23,0-.43,0-.65h-1s0-.15,0-.18h1.07l.2-.2C28.92,23.23,29.21,23.3,29.15,23.52Z"/><path class="cls-1" d="M30.32,27c-.08.08-.21,0-.31.05a1.21,1.21,0,0,0,.58.38l.39.1c0,.11-.16.12-.17.24s0,.16,0,.24a1.68,1.68,0,0,1-.58-.4l-.06,0h-1.6s-.05-.11,0-.14h1.14c.11-.06.19-.33.34-.1,0,0,0,0,0,0a2,2,0,0,1-.21-.35H29l-.1-.14h.82l.24-.25C30.08,26.72,30.25,26.79,30.32,27Z"/><path class="cls-1" d="M28.89,27.05c0,.1-.13.08-.19.12a2.94,2.94,0,0,1-1.09.81l0,0a3.57,3.57,0,0,0,.77-1.19A3,3,0,0,1,28.89,27.05Z"/><path class="cls-1" d="M30.34,28.11c0,.1-.1.08-.17.08H30a1.45,1.45,0,0,0,1,.49c0,.1-.12.13-.15.2s0,.2-.08.28-.24-.28-.33,0v.78c.08-.06.13-.18.22-.27A1.44,1.44,0,0,1,31,30l-.12.08H27.67c-.05,0-.05-.13-.08-.15h.55V28.89a2.05,2.05,0,0,1-.56.31v0A3,3,0,0,0,28.34,28a3.39,3.39,0,0,1,.53.29c0,.08-.12.08-.18.1a2.34,2.34,0,0,1-.38.39l.25.09h1.36l.19-.15a1.9,1.9,0,0,1-.3-.49l0,0H29s0-.1-.05-.13h.82l.21-.22A1.15,1.15,0,0,1,30.34,28.11Zm-1.6.87h-.16v1h.16Zm.63,0h-.13s0,.11,0,.14V30h.17Zm.6,0h-.11l0,.07a.46.46,0,0,1-.07.07V30H30Z"/><path class="cls-1" d="M23.64,23.11c.05.08-.08.1-.11.14a2.88,2.88,0,0,0,1.59,2.65c0,.12-.07,0-.26.11s-.13.29-.21.29c-.26-.08-.44-.35-.61-.56a4.09,4.09,0,0,1-.62-2A2.65,2.65,0,0,1,22,26.27a.9.9,0,0,1-.46.09v0c1.26-.61,1.39-2,1.34-3.32A2.94,2.94,0,0,1,23.64,23.11Z"/><path class="cls-1" d="M22.3,27.05c.19,0,.59.06.67-.22a1.15,1.15,0,0,1,.42.34c0,.11-.09.12-.14.16v.88c-.05.12-.21.11-.32.11a.12.12,0,0,1-.12-.07s0-.12,0-.11h-.49l0,0v2c-.05.12-.2.11-.32.12a.11.11,0,0,1-.12-.1V26.83Zm.5.43V27.2h-.51v.28Zm0,.47v-.28h-.51V28Z"/><path class="cls-1" d="M24.54,27.06l.13-.21c.14.11.34.18.42.36s-.1.1-.15.16V30c-.05.17-.24.22-.39.23s-.09,0-.09-.09V30a1.38,1.38,0,0,0-.39-.18.63.63,0,0,1-.38.09c-.07-.07-.05-.18-.05-.27l-.52,0c-.06.13.05.38-.17.39s-.18,0-.26,0l0-.06V28.31a3.14,3.14,0,0,1,.44.18h.54l.1-.14a.32.32,0,0,1-.22-.08V26.85l.47.21Zm0,.45v-.28H24v.28Zm0,.48V27.7H24V28Zm-.87,1v-.28h-.51V29Zm0,.47v-.28h-.51v.28Zm.25-1.11a.6.6,0,0,1,.19.12c.25.21,0,.29,0,.29v1l.27,0a.14.14,0,0,0,.16-.07V28.16H24C24,28.22,23.88,28.32,23.88,28.32Z"/><polygon class="cls-1" points="32.79 16.66 32.79 21.03 23.53 21.03 23.53 19.67 29.72 19.67 29.72 16.66 32.79 16.66"/><path class="cls-1" d="M23.53,16.67h5.93v2.74H23.53Zm4.95.91H26.57V17h-.25v.55H24.53v.25h1.74c-.31.73-1.73.82-1.73.82l0,.25c1.57-.11,1.88-.88,1.88-.88.44.82,2,.89,2,.89l0-.25c-1.29-.12-1.68-.57-1.81-.83h1.86Z"/><path class="cls-1" d="M12.54,30.25a3.12,3.12,0,0,1,.64,1.25l.26-.07a3.51,3.51,0,0,0-.72-1.37Z"/><path class="cls-1" d="M13.62,29a4.64,4.64,0,0,0,1,1.61l.18-.19A4.45,4.45,0,0,1,13.86,29Z"/><path class="cls-1" d="M12.24,21.73a2.13,2.13,0,0,0-1.55.72,1.93,1.93,0,0,0,0,2.7,1.64,1.64,0,0,0,2.17,0,1.17,1.17,0,0,0,.42-.86,1.12,1.12,0,0,0-.31-.85.9.9,0,0,0-.73-.23.67.67,0,0,0-.51.35l.23.12a.41.41,0,0,1,.32-.21.61.61,0,0,1,.5.16.86.86,0,0,1,.24.65.94.94,0,0,1-.33.67,1.4,1.4,0,0,1-1.81,0,1.66,1.66,0,0,1,0-2.34A1.82,1.82,0,0,1,12.25,22a3.38,3.38,0,0,1,2.41,1.07c1.12,1.09,1.12,2.85,1.12,3.91s-.62,4.05-2.49,4.37a1.49,1.49,0,0,1-1.17-.24,1.52,1.52,0,0,1-.6-1A1.39,1.39,0,0,1,12,28.8a1.14,1.14,0,0,1,1.1-.21,1,1,0,0,1,.61.79.65.65,0,0,1-.33.64.68.68,0,0,1-.52.1.5.5,0,0,1-.3-.27l-.23.11a.78.78,0,0,0,.46.41.92.92,0,0,0,.73-.13.9.9,0,0,0,.45-.88,1.23,1.23,0,0,0-.77-1,1.39,1.39,0,0,0-1.36.26,1.64,1.64,0,0,0-.59,1.57,1.79,1.79,0,0,0,.7,1.14,1.74,1.74,0,0,0,1.37.28C15.4,31.24,16,28.14,16,27.05s0-3-1.2-4.18A3.63,3.63,0,0,0,12.24,21.73Z"/><path class="cls-1" d="M0,26.5A26.5,26.5,0,1,0,26.5,0,26.53,26.53,0,0,0,0,26.5Zm.26,0A26.24,26.24,0,1,1,26.5,52.73,26.27,26.27,0,0,1,.26,26.5Z"/><path class="cls-1" d="M6.54,26.5a20,20,0,1,0,20-20A20,20,0,0,0,6.54,26.5Zm.26,0A19.7,19.7,0,1,1,26.5,46.2,19.73,19.73,0,0,1,6.8,26.5Z"/><path class="cls-1" d="M15.32,13.29a3.09,3.09,0,0,0-1.56,2.24l-.13.7a12.29,12.29,0,0,1-.87,3.05A11.38,11.38,0,0,1,11.3,21.6l-.61.84.22.14.6-.82A11.75,11.75,0,0,0,13,19.39a12.11,12.11,0,0,0,.88-3.11l.14-.7a2.77,2.77,0,0,1,1.42-2.05,2.23,2.23,0,0,1,1.92,0,1.75,1.75,0,0,1,1,1.23,2.28,2.28,0,0,1-.48,2,1.69,1.69,0,0,1-1.49.51,1.16,1.16,0,0,1-1.13-1.22,1.07,1.07,0,0,1,.92-1.12.68.68,0,0,1,.69.33.77.77,0,0,1,0,.76l.22.13a1,1,0,0,0,0-1,1,1,0,0,0-.94-.45A1.34,1.34,0,0,0,15,16a1.4,1.4,0,0,0,1.36,1.48,1.88,1.88,0,0,0,1.71-.58,2.55,2.55,0,0,0,.55-2.19,2,2,0,0,0-1.13-1.42A2.59,2.59,0,0,0,15.32,13.29Z"/><path class="cls-1" d="M21.93,8.38l-.44.42a14.41,14.41,0,0,1-2.08,2,27.7,27.7,0,0,1-3.66,2.29l-.62.35.14.22.61-.34A28.87,28.87,0,0,0,19.57,11a13.69,13.69,0,0,0,2.11-2L22,8.61a1.47,1.47,0,0,1,1.45.24,1.13,1.13,0,0,1,.49.91.92.92,0,0,1-.43.72,23.15,23.15,0,0,0-2.69,2.33,19.3,19.3,0,0,0-2.4,3.1l-.37.54.22.15.37-.55A19.85,19.85,0,0,1,21,13a23.81,23.81,0,0,1,2.66-2.31,1.15,1.15,0,0,0,.54-.92,1.41,1.41,0,0,0-.59-1.13A1.67,1.67,0,0,0,21.93,8.38Z"/><path class="cls-1" d="M15.62,14.83l.12.23a8.6,8.6,0,0,0,2-1.41l-.2-.17A9,9,0,0,1,15.62,14.83Z"/><path class="cls-1" d="M16.87,16l.24.1a4.4,4.4,0,0,1,1.37-1.43l-.15-.21A4.63,4.63,0,0,0,16.87,16Z"/><path class="cls-1" d="M11.84,23.48l.21.16A5.86,5.86,0,0,0,12.93,22l-.25-.07A5.71,5.71,0,0,1,11.84,23.48Z"/><path class="cls-1" d="M13.06,24.44l.25,0a3.8,3.8,0,0,1,1-1.81l-.19-.19A3.8,3.8,0,0,0,13.06,24.44Z"/><path class="cls-1" d="M35.27,13.37a2,2,0,0,0-1.13,1.41,2.54,2.54,0,0,0,.55,2.2,1.88,1.88,0,0,0,1.71.58,1.41,1.41,0,0,0,1.36-1.48,1.35,1.35,0,0,0-1.17-1.37.94.94,0,0,0-.93.45,1,1,0,0,0,0,1l.22-.14a.79.79,0,0,1,0-.76.7.7,0,0,1,.7-.32,1.09,1.09,0,0,1,.92,1.12,1.16,1.16,0,0,1-1.13,1.21,1.64,1.64,0,0,1-1.49-.5,2.31,2.31,0,0,1-.49-2,1.79,1.79,0,0,1,1-1.24,2.29,2.29,0,0,1,1.93,0,2.79,2.79,0,0,1,1.42,2l.13.7a13,13,0,0,0,.88,3.11A14,14,0,0,0,41.38,22l.62.86.22-.14-.63-.88A13.12,13.12,0,0,1,40,19.32a12.27,12.27,0,0,1-.86-3L39,15.56a3.07,3.07,0,0,0-1.56-2.23A2.53,2.53,0,0,0,35.27,13.37Z"/><path class="cls-1" d="M29.09,8.68A1.4,1.4,0,0,0,28.5,9.8a1.16,1.16,0,0,0,.55.93A22.72,22.72,0,0,1,31.7,13a17.71,17.71,0,0,1,2.15,2.72l.57.82.21-.16-.57-.8a16.69,16.69,0,0,0-2.18-2.77,23.15,23.15,0,0,0-2.69-2.33.92.92,0,0,1-.43-.72,1.18,1.18,0,0,1,.49-.91,1.44,1.44,0,0,1,1.45-.24l.36.36a14.43,14.43,0,0,0,2.12,2,29.11,29.11,0,0,0,3.7,2.32l.59.33.14-.22L37,13.1a27.91,27.91,0,0,1-3.66-2.3,14.66,14.66,0,0,1-2.09-2l-.43-.43A1.72,1.72,0,0,0,29.09,8.68Z"/><path class="cls-1" d="M35.05,13.68A7.71,7.71,0,0,0,36.85,15l.13-.23a7.75,7.75,0,0,1-1.73-1.27Z"/><path class="cls-1" d="M34.26,14.74a4.4,4.4,0,0,1,1.37,1.43l.24-.1a4.55,4.55,0,0,0-1.45-1.54Z"/><path class="cls-1" d="M37.91,22.91c-1.21,1.16-1.2,3-1.2,4.1s.64,4.27,2.7,4.62a1.78,1.78,0,0,0,1.37-.28,1.75,1.75,0,0,0,.7-1.14,1.62,1.62,0,0,0-.59-1.57,1.37,1.37,0,0,0-1.35-.26,1.24,1.24,0,0,0-.78,1,.93.93,0,0,0,.46.88.87.87,0,0,0,.73.12.76.76,0,0,0,.46-.4l-.24-.12a.45.45,0,0,1-.3.27.63.63,0,0,1-.52-.09.68.68,0,0,1-.33-.64,1,1,0,0,1,.62-.8,1.15,1.15,0,0,1,1.09.22,1.37,1.37,0,0,1,.49,1.33,1.44,1.44,0,0,1-1.76,1.2C37.58,31.06,37,28.08,37,27.09c0-1.14,0-2.91,1.12-4A3.3,3.3,0,0,1,40.49,22a1.87,1.87,0,0,1,1.37.63,1.68,1.68,0,0,1,0,2.35A1.4,1.4,0,0,1,40,25a.92.92,0,0,1-.33-.66.9.9,0,0,1,.24-.66.62.62,0,0,1,.54-.16c.18,0,.31.19.41.44l.24-.09a.87.87,0,0,0-.6-.61.91.91,0,0,0-.78.24,1.2,1.2,0,0,0-.31.85,1.22,1.22,0,0,0,.42.85,1.67,1.67,0,0,0,2.17,0,1.92,1.92,0,0,0,0-2.7,2.11,2.11,0,0,0-1.55-.72A3.6,3.6,0,0,0,37.91,22.91Z"/><path class="cls-1" d="M39.78,22a6.19,6.19,0,0,0,.86,1.64l.21-.16A5.58,5.58,0,0,1,40,21.91Z"/><path class="cls-1" d="M38.43,22.69a3.71,3.71,0,0,1,1,1.82l.26,0a4,4,0,0,0-1.07-2Z"/><path class="cls-1" d="M39.31,31.47l.25.07a3.05,3.05,0,0,1,.65-1.25L40,30.1A3.31,3.31,0,0,0,39.31,31.47Z"/><path class="cls-1" d="M38,30.5l.18.19a4.56,4.56,0,0,0,1-1.62L38.88,29A4.34,4.34,0,0,1,38,30.5Z"/><path class="cls-1" d="M23.34,10.88a6.52,6.52,0,0,0,2.91.77,4.92,4.92,0,0,0,3.11-.79l-.17-.2a4.83,4.83,0,0,1-2.94.73,6.29,6.29,0,0,1-2.78-.74Z"/><path class="cls-1" d="M39.22,34.81l-.07.28c-.52,2.34-2.11,9.43-12.65,9.43s-12.36-7.25-12.93-9.63l-.08-.36a15.6,15.6,0,0,0-1.66-3.7l-.22.14a15.53,15.53,0,0,1,1.62,3.63l.09.35c.58,2.43,2.35,9.83,13.18,9.83,7.13,0,11.47-3.24,12.9-9.63l.07-.28a12.41,12.41,0,0,1,1.81-4.08l-.23-.14A12.67,12.67,0,0,0,39.22,34.81Z"/><path class="cls-1" d="M32.47,22.09H27.41c-.07,0-.79.59-1,.75l-.93-.72L20,22.1,17.32,25l0,8.86h7.1l.93.92h2.14l.82-.81H35.1V24.78c0-.09-2.53-2.65-2.53-2.65l0,0Zm-6,1,1-.77,4.92,0,2.46,2.53s0,8.57,0,8.83H28.17l-.82.81H25.43l-.93-.92H17.55V25.09s2.34-2.51,2.55-2.73h5.32s.93.75.93.75l.08.06Z"/><path class="cls-1" d="M19.91,22.23V31h5.68s.79.74.79.74l.08.08,1-.86s5.06,0,5.06,0h.13l0-8.79h-.26s0,8.28,0,8.53h-5c-.08,0-.69.57-.89.74l-.78-.69-5.51,0V22.23Z"/><path class="cls-1" d="M33.63,23.57s0,8.23,0,8.48H27.75c-.09,0-1,.88-1,.88l-.86,0-.81-.81H18.9c0-.25,0-8.47,0-8.47h-.26v8.73H25l.81.81h1.06c.09,0,1-.87,1-.87l6.06,0V23.57Z"/><path class="cls-1" d="M19.29,22.92l0,8.82h6l.8.84h.69l.76-.86h5.8V23h-.26v8.47H27.4l-.76.86h-.46l-.8-.84H19.57c0-.25,0-8.56,0-8.56Z"/><path class="cls-1" d="M34.27,24.25v8.62H27.84l-.72.73H25.65l-.7-.88H18.19c0-.25,0-8.34,0-8.34h-.26V33h6.89l.71.88h1.69l.73-.73h6.58V24.25Z"/><polygon class="cls-1" points="17.32 33.64 17.52 33.82 20.14 30.99 19.95 30.82 17.32 33.64"/><rect class="cls-1" x="33.58" y="30.45" width="0.26" height="3.76" transform="translate(-12.93 29.74) rotate(-40.62)"/><polygon class="cls-1" points="17.84 5.08 16.41 2.73 15.63 3.15 17.06 5.5 17.84 5.08"/><polygon class="cls-1" points="14.18 7.58 18 5.37 19.17 7.19 18.38 7.66 17.57 6.4 14.55 8.15 14.18 7.58"/><path class="cls-1" d="M13.48,6.76A1.28,1.28,0,0,1,13,4.84a1.71,1.71,0,0,1,2.14-.61,1.28,1.28,0,0,1,.46,1.92A1.71,1.71,0,0,1,13.48,6.76Zm1.57-1.3a.59.59,0,0,0-.68-.61.8.8,0,0,0-.78.68.6.6,0,0,0,.68.61A.81.81,0,0,0,15.05,5.46Z"/></g></g></svg>